SplineFontDB: 3.0
FontName: Allerta-Medium
FullName: Allerta Medium
FamilyName: Allerta
Weight: Medium
Copyright: Copyright (c) 2009, Matt McInerney <matt@pixelspread.com>\n
Version: 1.0
ItalicAngle: 0
UnderlinePosition: -51.2
UnderlineWidth: 51.2
Ascent: 768
Descent: 256
sfntRevision: 0x00010000
LayerCount: 2
Layer: 0 1 "Back"  1
Layer: 1 1 "Fore"  0
NeedsXUIDChange: 1
XUID: [1021 496 529952750 12741585]
FSType: 4
OS2Version: 3
OS2_WeightWidthSlopeOnly: 0
OS2_UseTypoMetrics: 1
CreationTime: 1264307234
ModificationTime: 1291112563
PfmFamily: 81
TTFWeight: 500
TTFWidth: 5
LineGap: 0
VLineGap: 0
Panose: 0 0 0 0 0 0 0 0 0 0
OS2TypoAscent: 0
OS2TypoAOffset: 1
OS2TypoDescent: 0
OS2TypoDOffset: 1
OS2TypoLinegap: 0
OS2WinAscent: 0
OS2WinAOffset: 1
OS2WinDescent: 0
OS2WinDOffset: 1
HheadAscent: -289
HheadAOffset: 1
HheadDescent: -4
HheadDOffset: 1
OS2SubXSize: 717
OS2SubYSize: 666
OS2SubXOff: 0
OS2SubYOff: 143
OS2SupXSize: 717
OS2SupYSize: 666
OS2SupXOff: 0
OS2SupYOff: 488
OS2StrikeYSize: 51
OS2StrikeYPos: 256
OS2Vendor: 'pyrs'
OS2CodePages: 00000001.00000000
OS2UnicodeRanges: 80000027.08000002.14000000.00000000
Lookup: 258 0 0 "'kern' Horizontal Kerning in Latin lookup 0"  {"'kern' Horizontal Kerning in Latin lookup 0 subtable"  } ['kern' ('latn' <'dflt' > ) ]
MarkAttachClasses: 1
DEI: 91125
TtTable: prep
PUSHW_1
 511
SCANCTRL
PUSHB_1
 1
SCANTYPE
SVTCA[y-axis]
MPPEM
PUSHB_1
 8
LT
IF
PUSHB_2
 1
 1
INSTCTRL
EIF
PUSHB_2
 70
 6
CALL
IF
POP
PUSHB_1
 16
EIF
MPPEM
PUSHB_1
 20
GT
IF
POP
PUSHB_1
 128
EIF
SCVTCI
PUSHB_1
 6
CALL
NOT
IF
EIF
PUSHB_1
 20
CALL
EndTTInstrs
TtTable: fpgm
PUSHB_1
 0
FDEF
PUSHB_1
 0
SZP0
MPPEM
PUSHB_1
 42
LT
IF
PUSHB_1
 74
SROUND
EIF
PUSHB_1
 0
SWAP
MIAP[rnd]
RTG
PUSHB_1
 6
CALL
IF
RTDG
EIF
MPPEM
PUSHB_1
 42
LT
IF
RDTG
EIF
DUP
MDRP[rp0,rnd,grey]
PUSHB_1
 1
SZP0
MDAP[no-rnd]
RTG
ENDF
PUSHB_1
 1
FDEF
DUP
MDRP[rp0,min,white]
PUSHB_1
 12
CALL
ENDF
PUSHB_1
 2
FDEF
MPPEM
GT
IF
RCVT
SWAP
EIF
POP
ENDF
PUSHB_1
 3
FDEF
ROUND[Black]
RTG
DUP
PUSHB_1
 64
LT
IF
POP

StartChar: c
Encoding: 99 99 4
Width: 585
Flags: W
HStem: -5 99<262.994 417.216> 471 96<264.532 424.099>
VStem: 70 128<170.661 393.743>
LayerCount: 2
Fore
SplineSet
504 79 m 1,0,1
 470 36 470 36 430 15.5 c 128,-1,2
 390 -5 390 -5 328 -5 c 0,3,4
 269 -5 269 -5 221 17.5 c 128,-1,5
 173 40 173 40 139 78.5 c 128,-1,6
 105 117 105 117 87.5 169 c 128,-1,7
 70 221 70 221 70 282 c 256,8,9
 70 342 70 342 89 394 c 128,-1,10
 108 446 108 446 142 484.5 c 128,-1,11
 176 523 176 523 224 545 c 128,-1,12
 272 567 272 567 331 567 c 0,13,14
 393 567 393 567 437 546.5 c 128,-1,15
 481 526 481 526 515 483 c 1,16,-1
 461 418 l 1,17,18
 444 438 444 438 414 454.5 c 128,-1,19
 384 471 384 471 332 471 c 0,20,21
 302 471 302 471 277 457 c 128,-1,22
 252 443 252 443 234.5 418 c 128,-1,23
 217 393 217 393 207.5 359 c 128,-1,24
 198 325 198 325 198 285 c 256,25,26
 198 245 198 245 206.5 210.5 c 128,-1,27
 215 176 215 176 232 150 c 128,-1,28
 249 124 249 124 272.5 109 c 128,-1,29
 296 94 296 94 327 94 c 0,30,31
 372 94 372 94 402.5 108.5 c 128,-1,32
 433 123 433 123 459 144 c 1,33,-1
 504 79 l 1,0,1
EndSplineSet
EndChar

StartChar: d
Encoding: 100 100 5
Width: 641
Flags: W
HStem: 0 90<246.143 375.188> 476 93<243.592 373.328> 757 20G<434 556>
VStem: 50 128<173.016 394.763> 434 122<0 66.5306 507 777> 442 114<169.61 393.59>
LayerCount: 2
Fore
SplineSet
124 57 m 0,0,1
 86 100 86 100 68 163 c 128,-1,2
 50 226 50 226 50 290 c 0,3,4
 50 368 50 368 71.5 421 c 128,-1,5
 93 474 93 474 127 507 c 128,-1,6
 161 540 161 540 202.5 554.5 c 128,-1,7
 244 569 244 569 284 569 c 0,8,9
 333 569 333 569 373.5 552 c 128,-1,10
 414 535 414 535 434 507 c 1,11,-1
 434 777 l 1,12,-1
 556 777 l 1,13,-1
 556 0 l 1,14,-1
 441 0 l 1,15,16
 439 17 439 17 437.5 34.5 c 128,-1,17
 436 52 436 52 434 67 c 1,18,19
 431 54 431 54 416.5 41 c 128,-1,20
 402 28 402 28 379.5 17.5 c 128,-1,21
 357 7 357 7 329 1 c 128,-1,22
 301 -5 301 -5 271 -5 c 0,23,24
 231 -5 231 -5 192.5 9 c 128,-1,25
 154 23 154 23 124 57 c 0,0,1
178 281 m 256,26,27
 178 241 178 241 188 206.5 c 128,-1,28
 198 172 198 172 215 146 c 128,-1,29
 232 120 232 120 256.5 105 c 128,-1,30
 281 90 281 90 310 90 c 0,31,32
 341 90 341 90 365.5 105.5 c 128,-1,33
 390 121 390 121 407 147 c 128,-1,34
 424 173 424 173 433 208 c 128,-1,35
 442 243 442 243 442 283 c 256,36,37
 442 323 442 323 432.5 358 c 128,-1,38
 423 393 423 393 405.5 419 c 128,-1,39
 388 445 388 445 363.5 460.5 c 128,-1,40
 339 476 339 476 308 476 c 256,41,42
 277 476 277 476 253 460.5 c 128,-1,43
 229 445 229 445 212.5 418 c 128,-1,44
 196 391 196 391 187 356 c 128,-1,45
 178 321 178 321 178 281 c 256,26,27
EndSplineSet
EndChar

StartChar: e
Encoding: 101 101 6
Width: 664
Flags: W
HStem: -4 98<258.889 432.07> 241 88<193 469> 476 94<259.844 404.126>
VStem: 72 117<166.154 241 329 399.392>
LayerCount: 2
Fore
SplineSet
322 570 m 0,0,1
 390 570 390 570 442 542.5 c 128,-1,2
 494 515 494 515 527.5 469.5 c 128,-1,3
 561 424 561 424 575.5 364.5 c 128,-1,4
 590 305 590 305 581 241 c 1,5,-1
 189 241 l 1,6,7
 189 209 189 209 201 182 c 128,-1,8
 213 155 213 155 233.5 135.5 c 128,-1,9
 254 116 254 116 282.5 105 c 128,-1,10
 311 94 311 94 344 94 c 0,11,12
 355 94 355 94 371.5 96.5 c 128,-1,13
 388 99 388 99 406.5 105.5 c 128,-1,14
 425 112 425 112 443.5 122 c 128,-1,15
 462 132 462 132 476 146 c 1,16,-1
 520 79 l 1,17,18
 487 38 487 38 443 17 c 128,-1,19
 399 -4 399 -4 331 -4 c 0,20,21
 276 -4 276 -4 228 18.5 c 128,-1,22
 180 41 180 41 146 80 c 128,-1,23
 112 119 112 119 92 171 c 128,-1,24
 72 223 72 223 72 283 c 256,25,26
 72 342 72 342 92 394.5 c 128,-1,27
 112 447 112 447 145.5 486 c 128,-1,28
 179 525 179 525 225 547.5 c 128,-1,29
 271 570 271 570 322 570 c 0,0,1
469 329 m 1,30,31
 469 356 469 356 459 382 c 128,-1,32
 449 408 449 408 431.5 429 c 128,-1,33
 414 450 414 450 389 462.5 c 128,-1,34
 364 475 364 475 335 476 c 1,35,36
 304 476 304 476 278 464 c 128,-1,37
 252 452 252 452 233 432 c 128,-1,38
 214 412 214 412 203.5 384.5 c 128,-1,39
 193 357 193 357 193 329 c 1,40,-1
 469 329 l 1,30,31
EndSplineSet
EndChar

StartChar: f
Encoding: 102 102 7
Width: 471
Flags: W
HStem: 0 21G<129 251> 482 82<55 129 253 340> 681 83<327.253 391.883> 693 88<281.697 387.561>
VStem: 129 122<0 482 564 658.6>
LayerCount: 2
Fore
SplineSet
327 693 m 0,0,1
 307 693 307 693 293.5 683 c 128,-1,2
 280 673 280 673 271 655 c 128,-1,3
 262 637 262 637 258 613.5 c 128,-1,4
 254 590 254 590 253 564 c 1,5,-1
 340 564 l 1,6,-1
 340 482 l 1,7,-1
 251 482 l 1,8,-1
 251 434 l 1,9,-1
 251 0 l 1,10,-1
 129 0 l 1,11,-1
 129 434 l 1,12,-1
 129 482 l 1,13,-1
 55 482 l 1,14,-1
 55 564 l 1,15,-1
 131 564 l 1,16,17
 134 607 134 607 143 646.5 c 128,-1,18
 152 686 152 686 171.5 715.5 c 128,-1,19
 191 745 191 745 224.5 763 c 128,-1,20
 258 781 258 781 309 781 c 0,21,22
 324 781 324 781 341 778.5 c 128,-1,23
 358 776 358 776 374.5 772.5 c 128,-1,24
 391 769 391 769 405 764 c 128,-1,25
 419 759 419 759 427 753 c 1,26,-1
 388 681 l 1,27,28
 374 689 374 689 354.5 691 c 128,-1,29
 335 693 335 693 327 693 c 0,0,1
EndSplineSet
EndChar

StartChar: g
Encoding: 103 103 8
Width: 683
Flags: W
HStem: -227 98<234.977 401.689> -5 95<265.677 394.278> 476 93<264.013 392.658>
VStem: 69 128<172.467 395.586> 453 120<-75.3672 67> 461 113<172.506 392.936 548.553 564>
LayerCount: 2
Fore
SplineSet
201 -73 m 1,0,1
 211 -90 211 -90 226.5 -101 c 128,-1,2
 242 -112 242 -112 258.5 -118 c 128,-1,3
 275 -124 275 -124 291.5 -126.5 c 128,-1,4
 308 -129 308 -129 321 -129 c 0,5,6
 383 -129 383 -129 418 -93 c 128,-1,7
 453 -57 453 -57 453 30 c 2,8,-1
 453 56 l 1,9,-1
 453 58 l 1,10,-1
 454 63 l 2,11,12
 454 64 454 64 453.5 65 c 128,-1,13
 453 66 453 66 453 67 c 1,14,15
 450 54 450 54 435.5 41 c 128,-1,16
 421 28 421 28 399 17.5 c 128,-1,17
 377 7 377 7 349 1 c 128,-1,18
 321 -5 321 -5 291 -5 c 0,19,20
 235 -5 235 -5 193 19.5 c 128,-1,21
 151 44 151 44 123 85 c 128,-1,22
 95 126 95 126 82 179 c 128,-1,23
 69 232 69 232 69 290 c 0,24,25
 69 368 69 368 90.5 421 c 128,-1,26
 112 474 112 474 145.5 507.5 c 128,-1,27
 179 541 179 541 220.5 555 c 128,-1,28
 262 569 262 569 302 569 c 0,29,30
 351 569 351 569 391.5 552 c 128,-1,31
 432 535 432 535 453 507 c 1,32,-1
 466 564 l 1,33,-1
 574 564 l 1,34,-1
 573 0 l 1,35,36
 569 -61 569 -61 548.5 -104 c 128,-1,37
 528 -147 528 -147 496 -175 c 128,-1,38
 464 -203 464 -203 422 -215 c 128,-1,39
 380 -227 380 -227 332 -227 c 0,40,41
 276 -227 276 -227 221.5 -207.5 c 128,-1,42
 167 -188 167 -188 131 -142 c 1,43,-1
 201 -73 l 1,0,1
461 286 m 256,44,45
 461 326 461 326 451 360 c 128,-1,46
 441 394 441 394 424 420 c 128,-1,47
 407 446 407 446 382 461 c 128,-1,48
 357 476 357 476 328 476 c 256,49,50
 298 476 298 476 273.5 460.5 c 128,-1,51
 249 445 249 445 232 419 c 128,-1,52
 215 393 215 393 206 358 c 128,-1,53
 197 323 197 323 197 284 c 0,54,55
 197 244 197 244 206.5 208.5 c 128,-1,56
 216 173 216 173 233.5 147 c 128,-1,57
 251 121 251 121 275.5 105.5 c 128,-1,58
 300 90 300 90 330 90 c 0,59,60
 361 90 361 90 385 105.5 c 128,-1,61
 409 121 409 121 425.5 147.5 c 128,-1,62
 442 174 442 174 451.5 210 c 128,-1,63
 461 246 461 246 461 286 c 256,44,45
EndSplineSet
EndChar

StartChar: h
Encoding: 104 104 9
Width: 609
Flags: W
HStem: 0 21G<86 207 431 553> 478 92<272.555 393.485> 757 20G<86 207>
VStem: 86 121<0 449.863 507 777> 431 122<0 436.998>
LayerCount: 2
Fore
SplineSet
553 0 m 1,0,-1
 431 0 l 1,1,-1
 431 307 l 2,2,3
 431 341 431 341 428 372 c 128,-1,4
 425 403 425 403 414 427 c 128,-1,5
 403 451 403 451 384 464.5 c 128,-1,6
 365 478 365 478 331 478 c 0,7,8
 320 478 320 478 302.5 475 c 128,-1,9
 285 472 285 472 266.5 466 c 128,-1,10
 248 460 248 460 231.5 451 c 128,-1,11
 215 442 215 442 207 430 c 1,12,-1
 207 424 l 1,13,-1
 207 422 l 1,14,-1
 207 200 l 1,15,-1
 207 198 l 1,16,-1
 207 0 l 1,17,-1
 86 0 l 1,18,-1
 86 777 l 1,19,-1
 207 777 l 1,20,-1
 207 507 l 1,21,22
 219 518 219 518 237.5 529.5 c 128,-1,23
 256 541 256 541 278 550 c 128,-1,24
 300 559 300 559 323 564.5 c 128,-1,25
 346 570 346 570 368 570 c 0,26,27
 413 570 413 570 444 551 c 128,-1,28
 475 532 475 532 506 502 c 0,29,30
 523 485 523 485 532.5 462.5 c 128,-1,31
 542 440 542 440 546.5 415.5 c 128,-1,32
 551 391 551 391 552 366 c 128,-1,33
 553 341 553 341 553 317 c 2,34,-1
 553 20 l 1,35,-1
 553 0 l 1,0,-1
EndSplineSet
EndChar

StartChar: i
Encoding: 105 105 10
Width: 291
Flags: W
HStem: 673 143<96.6582 196.342>
VStem: 75 143<694.658 794.342>
LayerCount: 2
Fore
SplineSet
207 564 m 1,0,-1
 85 564 l 1,1,-1
 85 0 l 1,2,-1
 207 0 l 1,3,-1
 207 564 l 1,0,-1
218 744 m 256,4,5
 218 714 218 714 197 693.5 c 128,-1,6
 176 673 176 673 146 673 c 256,7,8
 116 673 116 673 95.5 694 c 128,-1,9
 75 715 75 715 75 744 c 256,10,11
 75 774 75 774 96 795 c 128,-1,12
 117 816 117 816 146 816 c 256,13,14
 176 816 176 816 197 795 c 128,-1,15
 218 774 218 774 218 744 c 256,4,5
EndSplineSet
EndChar

StartChar: j
Encoding: 106 106 11
Width: 327
Flags: W
HStem: -226 87<-25.9933 89.8394> 673 143<131.658 230.857>
VStem: 110 142<694.658 794.342> 120 122<-103.585 -37.5>
LayerCount: 2
Fore
SplineSet
60 -226 m 0,0,1
 107 -226 107 -226 139.5 -211 c 128,-1,2
 172 -196 172 -196 192 -170 c 128,-1,3
 212 -144 212 -144 222 -110 c 128,-1,4
 232 -76 232 -76 237 -37.5 c 128,-1,5
 242 1 242 1 242 41.5 c 128,-1,6
 242 82 242 82 242 120 c 2,7,-1
 242 564 l 1,8,-1
 120 564 l 1,9,-1
 120 121 l 1,10,11
 119 84 119 84 119.5 39 c 128,-1,12
 120 -6 120 -6 114.5 -46 c 128,-1,13
 109 -86 109 -86 93 -112.5 c 128,-1,14
 77 -139 77 -139 44 -139 c 0,15,16
 36 -139 36 -139 16.5 -136.5 c 128,-1,17
 -3 -134 -3 -134 -17 -126 c 1,18,-1
 -56 -199 l 1,19,20
 -39 -210 -39 -210 -4.5 -218 c 128,-1,21
 30 -226 30 -226 60 -226 c 0,0,1
252 744 m 256,22,23
 252 714 252 714 231.5 693.5 c 128,-1,24
 211 673 211 673 181 673 c 256,25,26
 151 673 151 673 130.5 694 c 128,-1,27
 110 715 110 715 110 744 c 256,28,29
 110 774 110 774 131 795 c 128,-1,30
 152 816 152 816 181 816 c 256,31,32
 211 816 211 816 231.5 795 c 128,-1,33
 252 774 252 774 252 744 c 256,22,23
EndSplineSet
EndChar

StartChar: k
Encoding: 107 107 12
Width: 588
Flags: W
HStem: 0 21G<86 208 397.815 551> 544 20G<375.543 525> 757 20G<86 208>
VStem: 86 122<0 270 295 777>
LayerCount: 2
Fore
SplineSet
413 0 m 1,0,-1
 208 270 l 1,1,-1
 208 0 l 1,2,-1
 86 0 l 1,3,-1
 86 777 l 1,4,-1
 208 777 l 1,5,-1
 208 295 l 1,6,-1
 389 564 l 1,7,-1
 525 564 l 1,8,-1
 327 283 l 1,9,-1
 551 0 l 1,10,-1
 413 0 l 1,0,-1
EndSplineSet
EndChar

StartChar: l
Encoding: 108 108 13
Width: 363
Flags: W
HStem: -5 79<230.969 321> 757 20G<84 206>
VStem: 84 122<99.0416 777>
LayerCount: 2
Fore
SplineSet
206 172 m 1,0,1
 206 138 206 138 215 118.5 c 128,-1,2
 224 99 224 99 240 89.5 c 128,-1,3
 256 80 256 80 276.5 77 c 128,-1,4
 297 74 297 74 321 74 c 1,5,-1
 321 0 l 1,6,7
 308 -2 308 -2 294 -3 c 0,8,9
 283 -4 283 -4 268 -4.5 c 128,-1,10
 253 -5 253 -5 238 -5 c 256,11,12
 223 -5 223 -5 208 -4 c 128,-1,13
 193 -3 193 -3 181 -1 c 0,14,15
 147 6 147 6 128 29 c 128,-1,16
 109 52 109 52 99 80.5 c 128,-1,17
 89 109 89 109 86.5 136 c 128,-1,18
 84 163 84 163 84 178 c 2,19,-1
 84 190 l 1,20,-1
 84 777 l 1,21,-1
 206 777 l 1,22,-1
 206 172 l 1,0,1
EndSplineSet
EndChar

StartChar: m
Encoding: 109 109 14
Width: 917
Flags: W
HStem: 0 21G<86 208 398 519 711 831> 477 91<267.325 375.465 577.616 687.498>
VStem: 86 122<0 446.919> 398 121<0 445.495> 711 120<0 458.493>
LayerCount: 2
Fore
SplineSet
831 19 m 1,0,-1
 831 0 l 1,1,-1
 711 0 l 1,2,-1
 711 307 l 2,3,4
 711 341 711 341 710.5 371.5 c 128,-1,5
 710 402 710 402 704 426 c 128,-1,6
 698 450 698 450 684.5 463.5 c 128,-1,7
 671 477 671 477 643 477 c 0,8,9
 638 477 638 477 625.5 475.5 c 128,-1,10
 613 474 613 474 596 469.5 c 128,-1,11
 579 465 579 465 558.5 455 c 128,-1,12
 538 445 538 445 518 429 c 1,13,14
 518 390 518 390 518.5 367 c 128,-1,15
 519 344 519 344 519 317 c 2,16,-1
 519 0 l 1,17,-1
 398 0 l 1,18,-1
 398 307 l 2,19,20
 398 341 398 341 398 371.5 c 128,-1,21
 398 402 398 402 392 426 c 128,-1,22
 386 450 386 450 372 463.5 c 128,-1,23
 358 477 358 477 331 477 c 0,24,25
 322 477 322 477 306 474.5 c 128,-1,26
 290 472 290 472 272.5 466 c 128,-1,27
 255 460 255 460 237.5 451 c 128,-1,28
 220 442 220 442 208 430 c 1,29,-1
 208 0 l 1,30,-1
 86 0 l 1,31,-1
 86 564 l 1,32,-1
 195 564 l 1,33,-1
 208 506 l 1,34,35
 233 529 233 529 272.5 548.5 c 128,-1,36
 312 568 312 568 355 568 c 0,37,38
 403 568 403 568 435 547 c 128,-1,39
 467 526 467 526 499 485 c 1,40,41
 516 504 516 504 537 520 c 128,-1,42
 558 536 558 536 580.5 547 c 128,-1,43
 603 558 603 558 625 564 c 128,-1,44
 647 570 647 570 667 570 c 0,45,46
 701 570 701 570 731 556.5 c 128,-1,47
 761 543 761 543 783.5 518 c 128,-1,48
 806 493 806 493 818.5 458.5 c 128,-1,49
 831 424 831 424 831 384 c 2,50,-1
 831 317 l 1,51,-1
 831 19 l 1,0,-1
EndSplineSet
EndChar

StartChar: n
Encoding: 110 110 15
Width: 634
Flags: W
HStem: 0 21G<86 207 431 553> 478 92<272.555 393.485>
VStem: 86 121<0 449.863> 431 122<0 436.998>
LayerCount: 2
Fore
SplineSet
553 0 m 1,0,-1
 431 0 l 1,1,-1
 431 307 l 2,2,3
 431 341 431 341 428 372 c 128,-1,4
 425 403 425 403 414 427 c 128,-1,5
 403 451 403 451 384 464.5 c 128,-1,6
 365 478 365 478 331 478 c 0,7,8
 320 478 320 478 302.5 475 c 128,-1,9
 285 472 285 472 266.5 466 c 128,-1,10
 248 460 248 460 231.5 451 c 128,-1,11
 215 442 215 442 207 430 c 1,12,-1
 207 424 l 1,13,-1
 207 422 l 1,14,-1
 207 200 l 1,15,-1
 207 198 l 1,16,-1
 207 0 l 1,17,-1
 86 0 l 1,18,-1
 86 564 l 1,19,-1
 194 564 l 1,20,-1
 207 507 l 1,21,22
 219 518 219 518 237.5 529.5 c 128,-1,23
 256 541 256 541 278 550 c 128,-1,24
 300 559 300 559 323 564.5 c 128,-1,25
 346 570 346 570 368 570 c 0,26,27
 413 570 413 570 444 551 c 128,-1,28
 475 532 475 532 506 502 c 0,29,30
 523 485 523 485 532.5 462.5 c 128,-1,31
 542 440 542 440 546.5 415.5 c 128,-1,32
 551 391 551 391 552 366 c 128,-1,33
 553 341 553 341 553 317 c 2,34,-1
 553 20 l 1,35,-1
 553 0 l 1,0,-1
EndSplineSet
EndChar

StartChar: o
Encoding: 111 111 16
Width: 662
Flags: W
HStem: -5 95<266.103 394.933> 475 92<268.614 396.128>
VStem: 72 128<168.923 394.442> 464 127<173.707 391.029>
LayerCount: 2
Fore
SplineSet
337 567 m 0,0,1
 395 567 395 567 442 544.5 c 128,-1,2
 489 522 489 522 522 483 c 128,-1,3
 555 444 555 444 573 392 c 128,-1,4
 591 340 591 340 591 280 c 256,5,6
 591 220 591 220 572 167.5 c 128,-1,7
 553 115 553 115 518.5 76.5 c 128,-1,8
 484 38 484 38 436.5 16.5 c 128,-1,9
 389 -5 389 -5 331 -5 c 0,10,11
 272 -5 272 -5 223.5 17 c 128,-1,12
 175 39 175 39 141.5 78 c 128,-1,13
 108 117 108 117 90 169 c 128,-1,14
 72 221 72 221 72 282 c 128,-1,15
 72 343 72 343 91.5 396 c 128,-1,16
 111 449 111 449 145.5 486.5 c 128,-1,17
 180 524 180 524 229 545.5 c 128,-1,18
 278 567 278 567 337 567 c 0,0,1
329 90 m 0,19,20
 359 90 359 90 383.5 104.5 c 128,-1,21
 408 119 408 119 425.5 144.5 c 128,-1,22
 443 170 443 170 453.5 205 c 128,-1,23
 464 240 464 240 464 280 c 256,24,25
 464 320 464 320 454.5 355 c 128,-1,26
 445 390 445 390 428.5 416.5 c 128,-1,27
 412 443 412 443 388 459 c 128,-1,28
 364 475 364 475 334 475 c 256,29,30
 304 475 304 475 279 460 c 128,-1,31
 254 445 254 445 236.5 419.5 c 128,-1,32
 219 394 219 394 209.5 359.5 c 128,-1,33
 200 325 200 325 200 285 c 256,34,35
 200 245 200 245 208.5 209.5 c 128,-1,36
 217 174 217 174 234 148 c 128,-1,37
 251 122 251 122 274.5 106 c 128,-1,38
 298 90 298 90 329 90 c 0,19,20
EndSplineSet
EndChar

StartChar: p
Encoding: 112 112 17
Width: 640
Flags: W
HStem: -5 94<266.212 395.169> 476 93<269.583 397.803>
VStem: 86 122<-222 67> 86 114<169.445 395.543 548.553 564> 464 127<171.383 393.367>
LayerCount: 2
Fore
SplineSet
579 393 m 0,0,1
 591 347 591 347 591 290 c 256,2,3
 591 233 591 233 577.5 179.5 c 128,-1,4
 564 126 564 126 536.5 85 c 128,-1,5
 509 44 509 44 467.5 19.5 c 128,-1,6
 426 -5 426 -5 370 -5 c 0,7,8
 340 -5 340 -5 312 1 c 128,-1,9
 284 7 284 7 262 17.5 c 128,-1,10
 240 28 240 28 225.5 40.5 c 128,-1,11
 211 53 211 53 208 67 c 1,12,-1
 208 -222 l 1,13,-1
 86 -222 l 1,14,-1
 86 564 l 1,15,-1
 195 564 l 1,16,-1
 208 507 l 1,17,18
 228 535 228 535 268.5 552 c 128,-1,19
 309 569 309 569 358 569 c 0,20,21
 391 569 391 569 425 560 c 128,-1,22
 459 551 459 551 488.5 530 c 128,-1,23
 518 509 518 509 542 475 c 128,-1,24
 566 441 566 441 579 393 c 0,0,1
330 89 m 0,25,26
 360 89 360 89 384.5 104 c 128,-1,27
 409 119 409 119 426.5 144.5 c 128,-1,28
 444 170 444 170 454 205.5 c 128,-1,29
 464 241 464 241 464 281 c 0,30,31
 464 320 464 320 455 355 c 128,-1,32
 446 390 446 390 429.5 417 c 128,-1,33
 413 444 413 444 389.5 460 c 128,-1,34
 366 476 366 476 335 476 c 0,35,36
 305 476 305 476 280 461 c 128,-1,37
 255 446 255 446 237 420.5 c 128,-1,38
 219 395 219 395 209.5 360.5 c 128,-1,39
 200 326 200 326 200 286 c 256,40,41
 200 246 200 246 208.5 210.5 c 128,-1,42
 217 175 217 175 234 148 c 128,-1,43
 251 121 251 121 275 105 c 128,-1,44
 299 89 299 89 330 89 c 0,25,26
EndSplineSet
EndChar

StartChar: q
Encoding: 113 113 18
Width: 640
Flags: W
HStem: -5 95<247.643 375.8> 476 93<244.888 373.328>
VStem: 50 128<173.737 394.655> 434 122<-151.13 67 284.249 408.934> 442 114<169.61 393.59 548.553 564>
LayerCount: 2
Fore
SplineSet
556 -66 m 2,0,1
 556 -78 556 -78 556 -91 c 128,-1,2
 556 -104 556 -104 559 -117 c 128,-1,3
 562 -130 562 -130 570 -142 c 128,-1,4
 578 -154 578 -154 593 -164 c 1,5,6
 591 -167 591 -167 586 -177.5 c 128,-1,7
 581 -188 581 -188 574 -200 c 0,8,9
 567 -213 567 -213 559 -230 c 1,10,11
 501 -222 501 -222 467.5 -178.5 c 128,-1,12
 434 -135 434 -135 434 -74 c 2,13,-1
 434 67 l 1,14,15
 431 54 431 54 416.5 41 c 128,-1,16
 402 28 402 28 380 17.5 c 128,-1,17
 358 7 358 7 330 1 c 128,-1,18
 302 -5 302 -5 272 -5 c 0,19,20
 216 -5 216 -5 174 19.5 c 128,-1,21
 132 44 132 44 104.5 85 c 128,-1,22
 77 126 77 126 63.5 179 c 128,-1,23
 50 232 50 232 50 290 c 0,24,25
 50 368 50 368 71.5 421 c 128,-1,26
 93 474 93 474 127 507.5 c 128,-1,27
 161 541 161 541 202.5 555 c 128,-1,28
 244 569 244 569 284 569 c 0,29,30
 333 569 333 569 373.5 552 c 128,-1,31
 414 535 414 535 434 507 c 1,32,-1
 447 564 l 1,33,-1
 556 564 l 1,34,-1
 556 -66 l 2,0,1
313 90 m 0,35,36
 343 90 343 90 366.5 105.5 c 128,-1,37
 390 121 390 121 407 147 c 128,-1,38
 424 173 424 173 433 208 c 128,-1,39
 442 243 442 243 442 283 c 256,40,41
 442 323 442 323 432.5 358 c 128,-1,42
 423 393 423 393 405.5 419 c 128,-1,43
 388 445 388 445 363.5 460.5 c 128,-1,44
 339 476 339 476 309 476 c 256,45,46
 279 476 279 476 254.5 460.5 c 128,-1,47
 230 445 230 445 213.5 419 c 128,-1,48
 197 393 197 393 187.5 358 c 128,-1,49
 178 323 178 323 178 284 c 0,50,51
 178 243 178 243 188 207.5 c 128,-1,52
 198 172 198 172 215.5 146 c 128,-1,53
 233 120 233 120 257.5 105 c 128,-1,54
 282 90 282 90 313 90 c 0,35,36
EndSplineSet
EndChar

StartChar: r
Encoding: 114 114 19
Width: 446
Flags: W
HStem: 0 21G<86 207> 451 117<260.204 402.122>
VStem: 86 121<0 429.764>
LayerCount: 2
Fore
SplineSet
403 442 m 1,0,1
 375 450 375 450 335 451 c 0,2,3
 299 451 299 451 263.5 442.5 c 128,-1,4
 228 434 228 434 207 414 c 1,5,-1
 207 200 l 1,6,-1
 207 198 l 1,7,-1
 207 0 l 1,8,-1
 86 0 l 1,9,-1
 86 564 l 1,10,-1
 194 564 l 1,11,-1
 207 506 l 1,12,13
 222 521 222 521 238.5 533 c 128,-1,14
 255 545 255 545 277 552.5 c 128,-1,15
 299 560 299 560 329 564 c 128,-1,16
 359 568 359 568 403 568 c 1,17,-1
 403 442 l 1,0,1
EndSplineSet
EndChar

StartChar: s
Encoding: 115 115 20
Width: 536
Flags: W
HStem: -5 93<151.738 332.696> 475 99<212.096 391.964>
VStem: 73 120<362.39 458.094> 360 105<110.944 196.279>
LayerCount: 2
Fore
SplineSet
75 45 m 1,0,-1
 126 126 l 1,1,2
 146 112 146 112 173.5 100 c 128,-1,3
 201 88 201 88 243 88 c 0,4,5
 298 88 298 88 329 105 c 128,-1,6
 360 122 360 122 360 155 c 0,7,8
 360 179 360 179 342 193.5 c 128,-1,9
 324 208 324 208 296.5 218.5 c 128,-1,10
 269 229 269 229 237.5 238.5 c 128,-1,11
 206 248 206 248 179 262 c 0,12,13
 126 290 126 290 99.5 321 c 128,-1,14
 73 352 73 352 73 403 c 0,15,16
 73 445 73 445 90.5 477 c 128,-1,17
 108 509 108 509 136 530.5 c 128,-1,18
 164 552 164 552 200 563 c 128,-1,19
 236 574 236 574 273 574 c 0,20,21
 323 574 323 574 365 563.5 c 128,-1,22
 407 553 407 553 446 528 c 1,23,-1
 407 445 l 1,24,25
 377 462 377 462 342 468.5 c 128,-1,26
 307 475 307 475 273 475 c 0,27,28
 236 475 236 475 214.5 458.5 c 128,-1,29
 193 442 193 442 193 407 c 0,30,31
 193 380 193 380 212.5 364.5 c 128,-1,32
 232 349 232 349 263 337 c 128,-1,33
 294 325 294 325 329 313 c 128,-1,34
 364 301 364 301 394.5 282.5 c 128,-1,35
 425 264 425 264 445 236 c 128,-1,36
 465 208 465 208 465 164 c 0,37,38
 465 121 465 121 448 89 c 128,-1,39
 431 57 431 57 402 36 c 128,-1,40
 373 15 373 15 335 5 c 128,-1,41
 297 -5 297 -5 254 -5 c 0,42,43
 228 -5 228 -5 206 -3.5 c 128,-1,44
 184 -2 184 -2 163 3 c 128,-1,45
 142 8 142 8 121 18 c 128,-1,46
 100 28 100 28 75 45 c 1,0,-1
EndSplineSet
EndChar

StartChar: t
Encoding: 116 116 21
Width: 418
Flags: W
HStem: -5 79<271.92 362> 482 82<52 126 247 337>
VStem: 126 121<99.0416 482 564 724>
LayerCount: 2
Fore
SplineSet
247 171 m 1,0,1
 247 137 247 137 256 118 c 128,-1,2
 265 99 265 99 281.5 89 c 128,-1,3
 298 79 298 79 318.5 76.5 c 128,-1,4
 339 74 339 74 362 74 c 1,5,-1
 362 0 l 1,6,7
 349 -2 349 -2 336 -3 c 0,8,9
 325 -4 325 -4 309.5 -4.5 c 128,-1,10
 294 -5 294 -5 279 -5 c 256,11,12
 264 -5 264 -5 248.5 -4 c 128,-1,13
 233 -3 233 -3 222 -1 c 0,14,15
 188 5 188 5 169 28.5 c 128,-1,16
 150 52 150 52 140.5 80.5 c 128,-1,17
 131 109 131 109 128.5 136 c 128,-1,18
 126 163 126 163 126 178 c 2,19,-1
 126 482 l 1,20,-1
 52 482 l 1,21,-1
 52 564 l 1,22,-1
 126 564 l 1,23,-1
 126 724 l 1,24,-1
 247 724 l 1,25,-1
 247 564 l 1,26,-1
 337 564 l 1,27,-1
 337 482 l 1,28,-1
 247 482 l 1,29,-1
 247 171 l 1,0,1
EndSplineSet
EndChar

StartChar: u
Encoding: 117 117 22
Width: 633
Flags: W
HStem: -5 92<239.867 361.616> 544 20G<82 204 427 549>
VStem: 82 122<125.971 564> 427 122<114.137 564>
LayerCount: 2
Fore
SplineSet
82 544 m 1,0,-1
 82 564 l 1,1,-1
 204 564 l 1,2,-1
 204 257 l 2,3,4
 204 222 204 222 207 191.5 c 128,-1,5
 210 161 210 161 220 138 c 128,-1,6
 230 115 230 115 250 101 c 128,-1,7
 270 87 270 87 303 87 c 0,8,9
 313 87 313 87 331 89.5 c 128,-1,10
 349 92 349 92 367.5 98 c 128,-1,11
 386 104 386 104 402.5 113 c 128,-1,12
 419 122 419 122 427 134 c 1,13,-1
 427 141 l 1,14,-1
 427 142 l 1,15,-1
 427 366 l 1,16,-1
 427 367 l 1,17,-1
 427 564 l 1,18,-1
 549 564 l 1,19,-1
 549 0 l 1,20,-1
 440 0 l 1,21,-1
 427 58 l 1,22,23
 415 47 415 47 397 36 c 128,-1,24
 379 25 379 25 357.5 15.5 c 128,-1,25
 336 6 336 6 313.5 0.5 c 128,-1,26
 291 -5 291 -5 269 -5 c 0,27,28
 245 -5 245 -5 226 -0.5 c 128,-1,29
 207 4 207 4 190.5 13.5 c 128,-1,30
 174 23 174 23 159 35 c 128,-1,31
 144 47 144 47 129 62 c 0,32,33
 112 79 112 79 102 101.5 c 128,-1,34
 92 124 92 124 87.5 148.5 c 128,-1,35
 83 173 83 173 82.5 198 c 128,-1,36
 82 223 82 223 82 247 c 2,37,-1
 82 545 l 1,38,-1
 82 544 l 1,0,-1
EndSplineSet
EndChar

StartChar: v
Encoding: 118 118 23
Width: 671
Flags: W
HStem: 544 20G<59 201.957 470.043 612>
LayerCount: 2
Fore
SplineSet
257 -4 m 1,0,-1
 59 564 l 1,1,-1
 196 564 l 1,2,-1
 336 94 l 1,3,-1
 476 564 l 1,4,-1
 612 564 l 1,5,-1
 414 -4 l 1,6,-1
 257 -4 l 1,0,-1
EndSplineSet
EndChar

StartChar: w
Encoding: 119 119 24
Width: 932
Flags: W
HStem: 544 20G<72 205.957 395.532 535.043 726.532 862>
LayerCount: 2
Fore
SplineSet
862 564 m 1,0,-1
 703 -4 l 1,1,-1
 547 -4 l 1,2,-1
 464 322 l 1,3,-1
 374 -4 l 1,4,-1
 217 -4 l 1,5,-1
 72 564 l 1,6,-1
 202 564 l 1,7,-1
 295 94 l 1,8,-1
 400 564 l 1,9,-1
 531 564 l 1,10,-1
 626 94 l 1,11,-1
 731 564 l 1,12,-1
 862 564 l 1,0,-1
EndSplineSet
EndChar

StartChar: x
Encoding: 120 120 25
Width: 680
Flags: W
HStem: 0 21G<78 229.178 452.713 603> 544 20G<77 225.429 454.488 604>
LayerCount: 2
Fore
SplineSet
604 564 m 1,0,-1
 419 283 l 1,1,-1
 603 0 l 1,2,-1
 464 0 l 1,3,-1
 350 202 l 1,4,-1
 340 202 l 1,5,-1
 217 0 l 1,6,-1
 78 0 l 1,7,-1
 262 283 l 1,8,-1
 77 564 l 1,9,-1
 214 564 l 1,10,-1
 330 361 l 1,11,-1
 340 361 l 1,12,-1
 467 564 l 1,13,-1
 604 564 l 1,0,-1
EndSplineSet
EndChar

StartChar: y
Encoding: 121 121 26
Width: 672
Flags: W
HStem: -252 88<130.252 241.816> -236.5 82.5<123.205 178.748> 544 20G<76 204.604 501.272 630>
LayerCount: 2
Fore
SplineSet
630 564 m 1,0,1
 575 417 575 417 532 303.5 c 128,-1,2
 489 190 489 190 457 104.5 c 128,-1,3
 425 19 425 19 400.5 -40 c 128,-1,4
 376 -99 376 -99 355.5 -138.5 c 128,-1,5
 335 -178 335 -178 317 -200.5 c 128,-1,6
 299 -223 299 -223 280 -235 c 128,-1,7
 261 -247 261 -247 238.5 -249.5 c 128,-1,8
 216 -252 216 -252 187 -252 c 0,9,10
 178 -252 178 -252 166 -249.5 c 128,-1,11
 154 -247 154 -247 142.5 -243.5 c 128,-1,12
 131 -240 131 -240 122 -236.5 c 128,-1,13
 113 -233 113 -233 110 -232 c 1,14,15
 114 -214 114 -214 118 -198 c 0,16,17
 121 -184 121 -184 124.5 -171.5 c 128,-1,18
 128 -159 128 -159 130 -154 c 1,19,20
 138 -154 138 -154 154.5 -159 c 128,-1,21
 171 -164 171 -164 179 -164 c 0,22,23
 195 -164 195 -164 207.5 -162.5 c 128,-1,24
 220 -161 220 -161 230 -153.5 c 128,-1,25
 240 -146 240 -146 249 -131.5 c 128,-1,26
 258 -117 258 -117 269 -90 c 2,27,-1
 307 0 l 1,28,-1
 76 564 l 1,29,-1
 197 564 l 1,30,-1
 362 130 l 1,31,-1
 508 564 l 1,32,-1
 630 564 l 1,0,1
EndSplineSet
EndChar

StartChar: z
Encoding: 122 122 27
Width: 601
Flags: W
HStem: 0 97<205 515> 467 97<86 396>
LayerCount: 2
Fore
SplineSet
86 564 m 1,0,-1
 515 564 l 1,1,-1
 515 467 l 1,2,-1
 225 113 l 1,3,-1
 205 97 l 1,4,-1
 515 97 l 1,5,-1
 515 0 l 1,6,-1
 86 0 l 1,7,-1
 86 97 l 1,8,-1
 376 451 l 1,9,-1
 396 467 l 1,10,-1
 86 467 l 1,11,-1
 86 564 l 1,0,-1
EndSplineSet
EndChar

StartChar: b
Encoding: 98 98 28
Width: 641
Flags: W
HStem: 0 90<265.842 393.845> 476 93<268.595 396.638> 757 20G<86 207>
VStem: 86 121<0 66.5615 156.131 408.913 507 777> 464 127<174.311 391.702>
LayerCount: 2
Fore
SplineSet
579 393 m 0,0,1
 591 347 591 347 591 292 c 0,2,3
 591 235 591 235 577.5 181 c 128,-1,4
 564 127 564 127 536.5 85.5 c 128,-1,5
 509 44 509 44 467.5 19.5 c 128,-1,6
 426 -5 426 -5 370 -5 c 0,7,8
 340 -5 340 -5 312 1 c 128,-1,9
 284 7 284 7 261.5 17.5 c 128,-1,10
 239 28 239 28 224.5 40.5 c 128,-1,11
 210 53 210 53 207 67 c 1,12,13
 206 53 206 53 204 35 c 128,-1,14
 202 17 202 17 201 0 c 1,15,-1
 86 0 l 1,16,-1
 86 777 l 1,17,-1
 207 777 l 1,18,-1
 207 507 l 1,19,20
 227 535 227 535 267.5 552 c 128,-1,21
 308 569 308 569 357 569 c 0,22,23
 390 569 390 569 424 560 c 128,-1,24
 458 551 458 551 487.5 530 c 128,-1,25
 517 509 517 509 541.5 475 c 128,-1,26
 566 441 566 441 579 393 c 0,0,1
329 90 m 0,27,28
 359 90 359 90 383.5 105 c 128,-1,29
 408 120 408 120 425.5 145.5 c 128,-1,30
 443 171 443 171 453.5 206 c 128,-1,31
 464 241 464 241 464 281 c 0,32,33
 464 320 464 320 454.5 355 c 128,-1,34
 445 390 445 390 428.5 417 c 128,-1,35
 412 444 412 444 388 460 c 128,-1,36
 364 476 364 476 334 476 c 256,37,38
 304 476 304 476 279 461 c 128,-1,39
 254 446 254 446 236.5 420.5 c 128,-1,40
 219 395 219 395 209.5 360.5 c 128,-1,41
 200 326 200 326 200 286 c 256,42,43
 200 246 200 246 208.5 210.5 c 128,-1,44
 217 175 217 175 234 148.5 c 128,-1,45
 251 122 251 122 274.5 106 c 128,-1,46
 298 90 298 90 329 90 c 0,27,28
EndSplineSet
EndChar

StartChar: B
Encoding: 66 66 29
Width: 671
Flags: W
HStem: 0 88<216 436.941> 341 81<216 406.878> 646 91<216 396.081>
VStem: 96 120<88 341 422 646> 438 113<454.769 606.997> 479 115<131.786 292.15>
LayerCount: 2
Fore
SplineSet
444 388 m 1,0,1
 467 385 467 385 493 373 c 128,-1,2
 519 361 519 361 541.5 339 c 128,-1,3
 564 317 564 317 579 285.5 c 128,-1,4
 594 254 594 254 594 213 c 0,5,6
 594 163 594 163 579 127 c 128,-1,7
 564 91 564 91 541.5 67.5 c 128,-1,8
 519 44 519 44 492.5 30.5 c 128,-1,9
 466 17 466 17 441.5 10 c 128,-1,10
 417 3 417 3 398 1.5 c 128,-1,11
 379 0 379 0 373 0 c 2,12,-1
 96 0 l 1,13,-1
 96 737 l 1,14,-1
 308 737 l 2,15,16
 355 737 355 737 399 726 c 128,-1,17
 443 715 443 715 477 691 c 128,-1,18
 511 667 511 667 531 628.5 c 128,-1,19
 551 590 551 590 551 537 c 0,20,21
 551 506 551 506 541 480.5 c 128,-1,22
 531 455 531 455 516 436 c 128,-1,23
 501 417 501 417 481.5 404.5 c 128,-1,24
 462 392 462 392 444 388 c 1,0,1
366 88 m 2,25,26
 419 88 419 88 449 122 c 128,-1,27
 479 156 479 156 479 213 c 0,28,29
 479 267 479 267 448 304 c 128,-1,30
 417 341 417 341 357 341 c 2,31,-1
 216 341 l 1,32,-1
 216 88 l 1,33,-1
 366 88 l 2,25,26
305 422 m 2,34,35
 327 422 327 422 350 423 c 128,-1,36
 373 424 373 424 393 434 c 128,-1,37
 413 444 413 444 425.5 468 c 128,-1,38
 438 492 438 492 438 537 c 0,39,40
 438 555 438 555 433 574.5 c 128,-1,41
 428 594 428 594 413 610 c 128,-1,42
 398 626 398 626 370 636 c 128,-1,43
 342 646 342 646 296 646 c 2,44,-1
 216 646 l 1,45,-1
 216 422 l 1,46,-1
 221 422 l 1,47,-1
 305 422 l 2,34,35
EndSplineSet
EndChar

StartChar: A
Encoding: 65 65 30
Width: 759
Flags: W
HStem: 0 21G<63 195.059 565.072 696> 153 81<270 490> 716 20G<313.989 446.957>
LayerCount: 2
Fore
SplineSet
63 0 m 1,0,-1
 321 736 l 1,1,-1
 440 736 l 1,2,-1
 696 0 l 1,3,-1
 572 0 l 1,4,-1
 519 153 l 1,5,-1
 242 153 l 1,6,-1
 188 0 l 1,7,-1
 63 0 l 1,0,-1
270 234 m 1,8,-1
 490 234 l 1,9,-1
 381 552 l 1,10,-1
 270 234 l 1,8,-1
EndSplineSet
EndChar

StartChar: D
Encoding: 68 68 31
Width: 770
Flags: W
HStem: 0 88<216 445.434> 646 91<216 425.461>
VStem: 96 120<88 646> 565 126<231.296 515.55>
LayerCount: 2
Fore
SplineSet
691 389 m 0,0,1
 691 298 691 298 671.5 233.5 c 128,-1,2
 652 169 652 169 622 125.5 c 128,-1,3
 592 82 592 82 554.5 57 c 128,-1,4
 517 32 517 32 482 19.5 c 128,-1,5
 447 7 447 7 418 3.5 c 128,-1,6
 389 0 389 0 375 0 c 2,7,-1
 96 0 l 1,8,-1
 96 737 l 1,9,-1
 318 737 l 2,10,11
 411 737 411 737 481.5 707.5 c 128,-1,12
 552 678 552 678 598.5 629 c 128,-1,13
 645 580 645 580 668 517.5 c 128,-1,14
 691 455 691 455 691 389 c 0,0,1
335 88 m 2,15,16
 457 88 457 88 511 166 c 128,-1,17
 565 244 565 244 565 392 c 0,18,19
 565 438 565 438 554 483 c 128,-1,20
 543 528 543 528 511.5 564.5 c 128,-1,21
 480 601 480 601 426 623.5 c 128,-1,22
 372 646 372 646 286 646 c 2,23,-1
 216 646 l 1,24,-1
 216 88 l 1,25,-1
 335 88 l 2,15,16
EndSplineSet
EndChar

StartChar: P
Encoding: 80 80 32
Width: 605
Flags: W
HStem: 0 21G<91 211> 266 88<211 392.302> 646 91<211 387.366>
VStem: 91 120<0 266 354 646> 444 116<408.778 590.868>
LayerCount: 2
Fore
SplineSet
211 0 m 1,0,-1
 91 0 l 1,1,-1
 91 737 l 1,2,-1
 303 737 l 2,3,4
 350 737 350 737 396 722 c 128,-1,5
 442 707 442 707 478.5 677 c 128,-1,6
 515 647 515 647 537.5 604.5 c 128,-1,7
 560 562 560 562 560 509 c 0,8,9
 560 453 560 453 541 407.5 c 128,-1,10
 522 362 522 362 488 331 c 128,-1,11
 454 300 454 300 406 283 c 128,-1,12
 358 266 358 266 300 266 c 2,13,-1
 211 266 l 1,14,-1
 211 0 l 1,0,-1
211 646 m 1,15,-1
 211 354 l 1,16,-1
 321 354 l 2,17,18
 343 354 343 354 364.5 361.5 c 128,-1,19
 386 369 386 369 404 386 c 128,-1,20
 422 403 422 403 433 433.5 c 128,-1,21
 444 464 444 464 444 509 c 0,22,23
 444 527 444 527 439 550.5 c 128,-1,24
 434 574 434 574 418.5 595.5 c 128,-1,25
 403 617 403 617 375 631.5 c 128,-1,26
 347 646 347 646 301 646 c 2,27,-1
 211 646 l 1,15,-1
EndSplineSet
EndChar

StartChar: E
Encoding: 69 69 33
Width: 628
Flags: W
HStem: 0 91<217 556> 332 82<217 525> 646 91<217 556>
VStem: 95 122<91 332 414 646>
LayerCount: 2
Fore
SplineSet
217 646 m 1,0,-1
 217 414 l 1,1,-1
 525 414 l 1,2,-1
 525 332 l 1,3,-1
 217 332 l 1,4,-1
 217 91 l 1,5,-1
 556 91 l 1,6,-1
 556 0 l 1,7,-1
 95 0 l 1,8,-1
 95 737 l 1,9,-1
 556 737 l 1,10,-1
 556 646 l 1,11,-1
 217 646 l 1,0,-1
EndSplineSet
EndChar

StartChar: F
Encoding: 70 70 34
Width: 591
Flags: W
HStem: 0 21G<95 217> 332 82<217 525> 646 91<217 556>
VStem: 95 122<0 332 414 646>
LayerCount: 2
Fore
SplineSet
217 646 m 1,0,-1
 217 414 l 1,1,-1
 525 414 l 1,2,-1
 525 332 l 1,3,-1
 217 332 l 1,4,-1
 217 0 l 1,5,-1
 95 0 l 1,6,-1
 95 737 l 1,7,-1
 556 737 l 1,8,-1
 556 646 l 1,9,-1
 217 646 l 1,0,-1
EndSplineSet
EndChar

StartChar: L
Encoding: 76 76 35
Width: 584
Flags: W
HStem: 0 91<215 554> 717 20G<93 215>
VStem: 93 122<91 737>
LayerCount: 2
Fore
SplineSet
215 737 m 1,0,-1
 215 91 l 1,1,-1
 554 91 l 1,2,-1
 554 0 l 1,3,-1
 93 0 l 1,4,-1
 93 737 l 1,5,-1
 215 737 l 1,0,-1
EndSplineSet
EndChar

StartChar: T
Encoding: 84 84 36
Width: 663
Flags: W
HStem: 0 21G<271 392> 655 82<51 271 392 612>
VStem: 271 121<0 655>
LayerCount: 2
Fore
SplineSet
612 737 m 1,0,-1
 612 655 l 1,1,-1
 392 655 l 1,2,-1
 392 0 l 1,3,-1
 271 0 l 1,4,-1
 271 655 l 1,5,-1
 51 655 l 1,6,-1
 51 737 l 1,7,-1
 612 737 l 1,0,-1
EndSplineSet
EndChar

StartChar: V
Encoding: 86 86 37
Width: 743
Flags: W
HStem: 717 20G<60 202.377 543.308 685>
LayerCount: 2
Fore
SplineSet
289 -4 m 1,0,-1
 60 737 l 1,1,-1
 197 737 l 1,2,-1
 368 101 l 1,3,-1
 549 737 l 1,4,-1
 685 737 l 1,5,-1
 445 -4 l 1,6,-1
 289 -4 l 1,0,-1
EndSplineSet
EndChar

StartChar: W
Encoding: 87 87 38
Width: 1093
Flags: W
HStem: 717 20G<73 213.088 474.597 619.088 881.566 1022>
LayerCount: 2
Fore
SplineSet
1022 737 m 1,0,-1
 823 -4 l 1,1,-1
 667 -4 l 1,2,-1
 546 552 l 1,3,-1
 417 -4 l 1,4,-1
 260 -4 l 1,5,-1
 73 737 l 1,6,-1
 209 737 l 1,7,-1
 339 101 l 1,8,-1
 479 737 l 1,9,-1
 615 737 l 1,10,-1
 745 101 l 1,11,-1
 886 737 l 1,12,-1
 1022 737 l 1,0,-1
EndSplineSet
EndChar

StartChar: X
Encoding: 88 88 39
Width: 702
Flags: W
HStem: 0 21G<86 234.065 469.583 617> 717 20G<74 219.667 482.6 629>
LayerCount: 2
Fore
SplineSet
430 358 m 1,0,-1
 617 0 l 1,1,-1
 478 0 l 1,2,-1
 361 278 l 1,3,-1
 351 278 l 1,4,-1
 225 0 l 1,5,-1
 86 0 l 1,6,-1
 273 358 l 1,7,-1
 74 737 l 1,8,-1
 211 737 l 1,9,-1
 341 437 l 1,10,-1
 351 437 l 1,11,-1
 492 737 l 1,12,-1
 629 737 l 1,13,-1
 430 358 l 1,0,-1
EndSplineSet
EndChar

StartChar: Y
Encoding: 89 89 40
Width: 655
Flags: W
HStem: 0 21G<262 384> 717 20G<54 198.697 457.697 603>
VStem: 262 122<0 290>
LayerCount: 2
Fore
SplineSet
603 737 m 1,0,-1
 384 300 l 1,1,-1
 384 0 l 1,2,-1
 262 0 l 1,3,-1
 262 290 l 1,4,-1
 54 737 l 1,5,-1
 191 737 l 1,6,-1
 318 407 l 1,7,-1
 329 407 l 1,8,-1
 466 737 l 1,9,-1
 603 737 l 1,0,-1
EndSplineSet
EndChar

StartChar: U
Encoding: 85 85 43
Width: 737
Flags: W
HStem: -5 98<286.356 449.541> 717 20G<82 204 534 655>
VStem: 82 122<205.787 737> 534 121<205.787 737>
LayerCount: 2
Fore
SplineSet
655 737 m 1,0,-1
 655 372 l 2,1,2
 655 279 655 279 634.5 208 c 128,-1,3
 614 137 614 137 577 90 c 128,-1,4
 540 43 540 43 487 19 c 128,-1,5
 434 -5 434 -5 369 -5 c 256,6,7
 303 -5 303 -5 250.5 19 c 128,-1,8
 198 43 198 43 160.5 90 c 128,-1,9
 123 137 123 137 102.5 208 c 128,-1,10
 82 279 82 279 82 372 c 2,11,-1
 82 737 l 1,12,-1
 204 737 l 1,13,-1
 204 384 l 2,14,15
 204 302 204 302 215.5 246 c 128,-1,16
 227 190 227 190 248 156.5 c 128,-1,17
 269 123 269 123 299 108 c 128,-1,18
 329 93 329 93 366 93 c 0,19,20
 404 93 404 93 435 107 c 128,-1,21
 466 121 466 121 488 154 c 128,-1,22
 510 187 510 187 522 243 c 128,-1,23
 534 299 534 299 534 384 c 2,24,-1
 534 737 l 1,25,-1
 655 737 l 1,0,-1
EndSplineSet
EndChar

StartChar: O
Encoding: 79 79 44
Width: 768
Flags: W
HStem: -5 98<300.305 466.461> 650 99<300.12 468.666>
VStem: 77 122<221.626 521.636> 569 122<221.832 520.696>
LayerCount: 2
Fore
SplineSet
691 372 m 256,0,1
 691 279 691 279 667.5 208 c 128,-1,2
 644 137 644 137 602.5 90 c 128,-1,3
 561 43 561 43 505.5 19 c 128,-1,4
 450 -5 450 -5 384 -5 c 256,5,6
 318 -5 318 -5 262.5 19 c 128,-1,7
 207 43 207 43 165.5 90 c 128,-1,8
 124 137 124 137 100.5 208 c 128,-1,9
 77 279 77 279 77 372 c 256,10,11
 77 465 77 465 100.5 535.5 c 128,-1,12
 124 606 124 606 165.5 653 c 128,-1,13
 207 700 207 700 262.5 724.5 c 128,-1,14
 318 749 318 749 384 749 c 256,15,16
 450 749 450 749 505.5 724.5 c 128,-1,17
 561 700 561 700 602.5 653 c 128,-1,18
 644 606 644 606 667.5 535.5 c 128,-1,19
 691 465 691 465 691 372 c 256,0,1
381 93 m 0,20,21
 418 93 418 93 451.5 107.5 c 128,-1,22
 485 122 485 122 511.5 155 c 128,-1,23
 538 188 538 188 553 241.5 c 128,-1,24
 568 295 568 295 569 372 c 1,25,26
 568 447 568 447 553.5 499.5 c 128,-1,27
 539 552 539 552 513.5 586 c 128,-1,28
 488 620 488 620 455.5 635 c 128,-1,29
 423 650 423 650 387 650 c 0,30,31
 350 650 350 650 316.5 636 c 128,-1,32
 283 622 283 622 256.5 588.5 c 128,-1,33
 230 555 230 555 215 502 c 128,-1,34
 200 449 200 449 199 372 c 1,35,36
 200 297 200 297 214.5 244 c 128,-1,37
 229 191 229 191 254.5 157.5 c 128,-1,38
 280 124 280 124 312.5 108.5 c 128,-1,39
 345 93 345 93 381 93 c 0,20,21
EndSplineSet
EndChar

StartChar: zero
Encoding: 48 48 45
Width: 712
Flags: W
HStem: -5 98<278.953 433.653> 650 99<277.373 431.603>
VStem: 74 122<201.386 538.353> 517 122<205.022 537.267>
LayerCount: 2
Fore
SplineSet
356 749 m 256,0,1
 422 749 422 749 474 724.5 c 128,-1,2
 526 700 526 700 563 653 c 128,-1,3
 600 606 600 606 619.5 535.5 c 128,-1,4
 639 465 639 465 639 372 c 256,5,6
 639 279 639 279 619.5 208 c 128,-1,7
 600 137 600 137 563 90 c 128,-1,8
 526 43 526 43 474 19 c 128,-1,9
 422 -5 422 -5 356 -5 c 256,10,11
 290 -5 290 -5 238 19 c 128,-1,12
 186 43 186 43 149.5 90 c 128,-1,13
 113 137 113 137 93.5 208 c 128,-1,14
 74 279 74 279 74 372 c 256,15,16
 74 465 74 465 93.5 535.5 c 128,-1,17
 113 606 113 606 149.5 653 c 128,-1,18
 186 700 186 700 238 724.5 c 128,-1,19
 290 749 290 749 356 749 c 256,0,1
359 650 m 0,20,21
 322 650 322 650 292 636 c 128,-1,22
 262 622 262 622 241 588.5 c 128,-1,23
 220 555 220 555 208.5 502 c 128,-1,24
 197 449 197 449 196 372 c 1,25,26
 197 311 197 311 204 264 c 128,-1,27
 211 217 211 217 225 184 c 1,28,-1
 433 629 l 1,29,30
 400 650 400 650 359 650 c 0,20,21
353 93 m 0,31,32
 390 93 390 93 420.5 107.5 c 128,-1,33
 451 122 451 122 472 155 c 128,-1,34
 493 188 493 188 504.5 241.5 c 128,-1,35
 516 295 516 295 517 372 c 1,36,37
 516 497 516 497 484 564 c 1,38,-1
 275 118 l 1,39,40
 306 93 306 93 353 93 c 0,31,32
EndSplineSet
EndChar

StartChar: Z
Encoding: 90 90 46
Width: 645
Flags: W
HStem: 0 97<197 568> 640 97<78 450>
LayerCount: 2
Fore
SplineSet
568 737 m 1,0,-1
 568 640 l 1,1,-1
 217 113 l 1,2,-1
 197 97 l 1,3,-1
 568 97 l 1,4,-1
 568 0 l 1,5,-1
 78 0 l 1,6,-1
 78 97 l 1,7,-1
 429 624 l 1,8,-1
 450 640 l 1,9,-1
 78 640 l 1,10,-1
 78 737 l 1,11,-1
 568 737 l 1,0,-1
EndSplineSet
EndChar

StartChar: C
Encoding: 67 67 47
Width: 671
Flags: W
HStem: -5 98<302.305 468.418> 650 99<302.453 469.968>
VStem: 79 122<221.626 521.636>
LayerCount: 2
Fore
SplineSet
591 75 m 1,0,1
 550 35 550 35 498 15 c 128,-1,2
 446 -5 446 -5 386 -5 c 0,3,4
 320 -5 320 -5 264.5 19 c 128,-1,5
 209 43 209 43 167.5 90 c 128,-1,6
 126 137 126 137 102.5 208 c 128,-1,7
 79 279 79 279 79 372 c 256,8,9
 79 465 79 465 102.5 535.5 c 128,-1,10
 126 606 126 606 167.5 653 c 128,-1,11
 209 700 209 700 265 724.5 c 128,-1,12
 321 749 321 749 386 749 c 0,13,14
 446 749 446 749 498 729 c 128,-1,15
 550 709 550 709 591 669 c 1,16,-1
 508 595 l 1,17,18
 483 624 483 624 452.5 637 c 128,-1,19
 422 650 422 650 389 650 c 0,20,21
 352 650 352 650 318.5 636 c 128,-1,22
 285 622 285 622 258.5 588.5 c 128,-1,23
 232 555 232 555 217 502 c 128,-1,24
 202 449 202 449 201 372 c 1,25,26
 202 297 202 297 216.5 244 c 128,-1,27
 231 191 231 191 256.5 157.5 c 128,-1,28
 282 124 282 124 314.5 108.5 c 128,-1,29
 347 93 347 93 383 93 c 256,30,31
 419 93 419 93 450.5 106 c 128,-1,32
 482 119 482 119 508 148 c 1,33,-1
 591 75 l 1,0,1
EndSplineSet
EndChar

StartChar: G
Encoding: 71 71 48
Width: 710
Flags: W
HStem: -5 88<305.747 498.558> 298 82<385 510> 650 99<302.453 470.3>
VStem: 79 122<219.061 521.636> 510 119<99.968 298>
LayerCount: 2
Fore
SplineSet
629 380 m 1,0,-1
 629 95 l 1,1,2
 606 66 606 66 577.5 47.5 c 128,-1,3
 549 29 549 29 517.5 17 c 128,-1,4
 486 5 486 5 452.5 0 c 128,-1,5
 419 -5 419 -5 386 -5 c 0,6,7
 320 -5 320 -5 264.5 19 c 128,-1,8
 209 43 209 43 167.5 90 c 128,-1,9
 126 137 126 137 102.5 208 c 128,-1,10
 79 279 79 279 79 372 c 256,11,12
 79 465 79 465 102.5 535.5 c 128,-1,13
 126 606 126 606 167.5 653 c 128,-1,14
 209 700 209 700 265 724.5 c 128,-1,15
 321 749 321 749 386 749 c 0,16,17
 446 749 446 749 498 729 c 128,-1,18
 550 709 550 709 591 669 c 1,19,-1
 508 595 l 1,20,21
 484 624 484 624 453 637 c 128,-1,22
 422 650 422 650 389 650 c 0,23,24
 352 650 352 650 318.5 636 c 128,-1,25
 285 622 285 622 258.5 588.5 c 128,-1,26
 232 555 232 555 217 502 c 128,-1,27
 202 449 202 449 201 372 c 1,28,29
 202 297 202 297 216.5 242 c 128,-1,30
 231 187 231 187 256.5 152 c 128,-1,31
 282 117 282 117 314.5 100 c 128,-1,32
 347 83 347 83 383 83 c 0,33,34
 394 83 394 83 412.5 84.5 c 128,-1,35
 431 86 431 86 449.5 89.5 c 128,-1,36
 468 93 468 93 485 99 c 128,-1,37
 502 105 502 105 510 116 c 1,38,-1
 510 298 l 1,39,-1
 385 298 l 1,40,-1
 385 380 l 1,41,-1
 629 380 l 1,0,-1
EndSplineSet
EndChar

StartChar: K
Encoding: 75 75 49
Width: 668
Flags: W
HStem: 0 21G<93 215 439.4 592> 717 20G<93 215 423.076 572>
VStem: 93 122<0 350 368 737>
LayerCount: 2
Fore
SplineSet
572 737 m 1,0,-1
 336 358 l 1,1,-1
 592 0 l 1,2,-1
 453 0 l 1,3,-1
 215 350 l 1,4,-1
 215 0 l 1,5,-1
 93 0 l 1,6,-1
 93 737 l 1,7,-1
 215 737 l 1,8,-1
 215 368 l 1,9,-1
 435 737 l 1,10,-1
 572 737 l 1,0,-1
EndSplineSet
EndChar

StartChar: R
Encoding: 82 82 50
Width: 660
Flags: W
HStem: 0 21G<90 210 452.588 590> 266 88<210 324> 646 91<210 386.366>
VStem: 90 120<0 266 354 646> 443 116<409.487 590.868>
LayerCount: 2
Fore
SplineSet
463 0 m 1,0,-1
 324 267 l 1,1,2
 321 267 321 267 316 266.5 c 128,-1,3
 311 266 311 266 300.5 266 c 128,-1,4
 290 266 290 266 268.5 266 c 128,-1,5
 247 266 247 266 210 266 c 1,6,-1
 210 0 l 1,7,-1
 90 0 l 1,8,-1
 90 737 l 1,9,-1
 302 737 l 2,10,11
 349 737 349 737 395 722 c 128,-1,12
 441 707 441 707 477.5 677 c 128,-1,13
 514 647 514 647 536.5 604.5 c 128,-1,14
 559 562 559 562 559 509 c 0,15,16
 559 429 559 429 522 373 c 128,-1,17
 485 317 485 317 422 290 c 1,18,-1
 590 0 l 1,19,-1
 463 0 l 1,0,-1
210 354 m 1,20,-1
 319 354 l 2,21,22
 341 354 341 354 363 361.5 c 128,-1,23
 385 369 385 369 403 386 c 128,-1,24
 421 403 421 403 432 433.5 c 128,-1,25
 443 464 443 464 443 509 c 0,26,27
 443 527 443 527 438 550.5 c 128,-1,28
 433 574 433 574 417.5 595.5 c 128,-1,29
 402 617 402 617 374 631.5 c 128,-1,30
 346 646 346 646 300 646 c 2,31,-1
 210 646 l 1,32,-1
 210 354 l 1,20,-1
EndSplineSet
EndChar

StartChar: S
Encoding: 83 83 51
Width: 542
Flags: W
HStem: -4 95<155.908 355.93>
VStem: 86 114<483.57 602.977> 397 112<130.242 260.674>
LayerCount: 2
Fore
SplineSet
509 202 m 0,0,1
 509 162 509 162 492.5 124.5 c 128,-1,2
 476 87 476 87 446 58.5 c 128,-1,3
 416 30 416 30 372 13 c 128,-1,4
 328 -4 328 -4 272 -4 c 0,5,6
 248 -4 248 -4 222.5 -1.5 c 128,-1,7
 197 1 197 1 171 7 c 128,-1,8
 145 13 145 13 121.5 23.5 c 128,-1,9
 98 34 98 34 81 49 c 1,10,-1
 102 135 l 1,11,12
 116 127 116 127 137.5 119.5 c 128,-1,13
 159 112 159 112 182 105.5 c 128,-1,14
 205 99 205 99 228 95 c 128,-1,15
 251 91 251 91 271 91 c 0,16,17
 332 91 332 91 364.5 119.5 c 128,-1,18
 397 148 397 148 397 204 c 0,19,20
 397 238 397 238 374 262 c 128,-1,21
 351 286 351 286 316.5 305.5 c 128,-1,22
 282 325 282 325 242 344.5 c 128,-1,23
 202 364 202 364 167 390.5 c 128,-1,24
 132 417 132 417 109 453 c 128,-1,25
 86 489 86 489 86 543 c 0,26,27
 86 592 86 592 104 630 c 128,-1,28
 122 668 122 668 152.5 694.5 c 128,-1,29
 183 721 183 721 223.5 735 c 128,-1,30
 264 749 264 749 309 749 c 0,31,32
 355 749 355 749 402 740.5 c 128,-1,33
 449 732 449 732 478 713 c 1,34,35
 472 700 472 700 464 684.5 c 128,-1,36
 456 669 456 669 449 655.5 c 128,-1,37
 442 642 442 642 437 633 c 128,-1,38
 432 624 432 624 431 623 c 1,39,40
 425 626 425 626 417.5 631 c 128,-1,41
 410 636 410 636 396 641 c 128,-1,42
 382 646 382 646 359 648 c 128,-1,43
 336 650 336 650 300 647 c 0,44,45
 280 645 280 645 262 635.5 c 128,-1,46
 244 626 244 626 230 612 c 128,-1,47
 216 598 216 598 208 580.5 c 128,-1,48
 200 563 200 563 200 547 c 0,49,50
 200 507 200 507 223 482.5 c 128,-1,51
 246 458 246 458 280 439.5 c 128,-1,52
 314 421 314 421 354 403.5 c 128,-1,53
 394 386 394 386 428.5 361 c 128,-1,54
 463 336 463 336 486 298.5 c 128,-1,55
 509 261 509 261 509 202 c 0,0,1
EndSplineSet
EndChar

StartChar: Q
Encoding: 81 81 52
Width: 749
Flags: W
HStem: -3 96<286.906 361> 650 99<286.776 455.654>
VStem: 63 122<224.298 519.726> 556 122<224.06 519.937>
LayerCount: 2
Fore
SplineSet
678 372 m 0,0,1
 678 296 678 296 660 234 c 128,-1,2
 642 172 642 172 611 125 c 128,-1,3
 580 78 580 78 539 48 c 128,-1,4
 498 18 498 18 452 9 c 1,5,-1
 590 -169 l 1,6,-1
 458 -169 l 1,7,-1
 361 -3 l 1,8,-1
 332 -3 l 1,9,10
 274 4 274 4 224.5 31 c 128,-1,11
 175 58 175 58 139 105 c 128,-1,12
 103 152 103 152 83 219 c 128,-1,13
 63 286 63 286 63 372 c 0,14,15
 63 465 63 465 87 535.5 c 128,-1,16
 111 606 111 606 152.5 653 c 128,-1,17
 194 700 194 700 249.5 724.5 c 128,-1,18
 305 749 305 749 371 749 c 256,19,20
 437 749 437 749 492.5 724.5 c 128,-1,21
 548 700 548 700 589.5 653 c 128,-1,22
 631 606 631 606 654.5 535.5 c 128,-1,23
 678 465 678 465 678 372 c 0,0,1
185 372 m 1,24,25
 186 297 186 297 201 244 c 128,-1,26
 216 191 216 191 241 157.5 c 128,-1,27
 266 124 266 124 299 108.5 c 128,-1,28
 332 93 332 93 368 93 c 0,29,30
 405 93 405 93 438.5 107.5 c 128,-1,31
 472 122 472 122 498 155 c 128,-1,32
 524 188 524 188 539.5 241.5 c 128,-1,33
 555 295 555 295 556 372 c 1,34,35
 555 447 555 447 540 499.5 c 128,-1,36
 525 552 525 552 500 586 c 128,-1,37
 475 620 475 620 442.5 635 c 128,-1,38
 410 650 410 650 374 650 c 0,39,40
 337 650 337 650 303 636 c 128,-1,41
 269 622 269 622 243 588.5 c 128,-1,42
 217 555 217 555 201.5 502 c 128,-1,43
 186 449 186 449 185 372 c 1,24,25
EndSplineSet
EndChar

StartChar: J
Encoding: 74 74 53
Width: 565
Flags: W
HStem: -5 103<127.664 324.388>
VStem: 355 122<128.004 752>
LayerCount: 2
Fore
SplineSet
477 752 m 1,0,-1
 477 178 l 2,1,2
 477 126 477 126 458 90.5 c 128,-1,3
 439 55 439 55 407 33.5 c 128,-1,4
 375 12 375 12 333.5 3.5 c 128,-1,5
 292 -5 292 -5 248 -5 c 0,6,7
 226 -5 226 -5 196.5 -0.5 c 128,-1,8
 167 4 167 4 135.5 13.5 c 128,-1,9
 104 23 104 23 75 35 c 128,-1,10
 46 47 46 47 26 62 c 1,11,-1
 77 143 l 1,12,13
 87 136 87 136 105.5 128.5 c 128,-1,14
 124 121 124 121 146 114.5 c 128,-1,15
 168 108 168 108 192 103 c 128,-1,16
 216 98 216 98 237 98 c 0,17,18
 290 98 290 98 321.5 118.5 c 128,-1,19
 353 139 353 139 355 188 c 1,20,-1
 355 752 l 1,21,-1
 477 752 l 1,0,-1
EndSplineSet
EndChar

StartChar: M
Encoding: 77 77 54
Width: 865
Flags: W
HStem: 0 21G<92 214 651 773> 717 20G<92 222.69 642.349 773>
VStem: 92 122<0 507> 651 122<0 507>
LayerCount: 2
Fore
SplineSet
651 737 m 1,0,-1
 773 737 l 1,1,-1
 773 0 l 1,2,-1
 651 0 l 1,3,-1
 651 507 l 1,4,-1
 486 97 l 1,5,-1
 380 97 l 1,6,-1
 214 507 l 1,7,-1
 214 0 l 1,8,-1
 92 0 l 1,9,-1
 92 737 l 1,10,-1
 214 737 l 1,11,-1
 433 233 l 1,12,-1
 651 737 l 1,0,-1
EndSplineSet
EndChar

StartChar: N
Encoding: 78 78 55
Width: 716
Flags: W
HStem: 0 21G<92 214 491.622 625> 717 20G<92 225.378 503 625>
VStem: 92 122<0 508> 503 122<229 737>
LayerCount: 2
Fore
SplineSet
625 737 m 1,0,-1
 625 0 l 1,1,-1
 503 0 l 1,2,-1
 214 508 l 1,3,-1
 214 0 l 1,4,-1
 92 0 l 1,5,-1
 92 737 l 1,6,-1
 214 737 l 1,7,-1
 503 229 l 1,8,-1
 503 737 l 1,9,-1
 625 737 l 1,0,-1
EndSplineSet
EndChar

StartChar: one
Encoding: 49 49 56
Width: 422
Flags: W
HStem: 0 21G<216 338> 717 20G<196 338>
VStem: 216 122<0 565>
LayerCount: 2
Fore
SplineSet
338 0 m 1,0,-1
 216 0 l 1,1,-1
 216 565 l 1,2,-1
 115 464 l 1,3,-1
 29 550 l 1,4,-1
 216 737 l 1,5,-1
 338 737 l 1,6,-1
 338 0 l 1,0,-1
EndSplineSet
EndChar

StartChar: two
Encoding: 50 50 57
Width: 614
Flags: W
HStem: 0 97<232 545> 641 101<160.912 366.179>
VStem: 417 117<440.168 591.275>
LayerCount: 2
Fore
SplineSet
534 518 m 0,0,1
 534 479 534 479 517 437.5 c 128,-1,2
 500 396 500 396 472 355.5 c 128,-1,3
 444 315 444 315 410.5 277 c 128,-1,4
 377 239 377 239 343.5 205 c 128,-1,5
 310 171 310 171 280.5 143.5 c 128,-1,6
 251 116 251 116 232 97 c 1,7,-1
 545 97 l 1,8,-1
 545 0 l 1,9,-1
 87 0 l 1,10,-1
 87 112 l 1,11,12
 105 128 105 128 137 155.5 c 128,-1,13
 169 183 169 183 206 217 c 128,-1,14
 243 251 243 251 280 289.5 c 128,-1,15
 317 328 317 328 347.5 367.5 c 128,-1,16
 378 407 378 407 397.5 445 c 128,-1,17
 417 483 417 483 417 517 c 0,18,19
 417 552 417 552 404.5 575.5 c 128,-1,20
 392 599 392 599 373 614 c 128,-1,21
 354 629 354 629 331.5 635 c 128,-1,22
 309 641 309 641 289 641 c 0,23,24
 250 641 250 641 224.5 638.5 c 128,-1,25
 199 636 199 636 180 631.5 c 128,-1,26
 161 627 161 627 146 619 c 128,-1,27
 131 611 131 611 114 601 c 1,28,-1
 79 675 l 1,29,30
 97 691 97 691 123.5 704 c 128,-1,31
 150 717 150 717 178.5 725 c 128,-1,32
 207 733 207 733 235 737.5 c 128,-1,33
 263 742 263 742 287 742 c 0,34,35
 352 742 352 742 398.5 721 c 128,-1,36
 445 700 445 700 475 667.5 c 128,-1,37
 505 635 505 635 519.5 595 c 128,-1,38
 534 555 534 555 534 518 c 0,0,1
EndSplineSet
EndChar

StartChar: acute
Encoding: 180 180 58
Width: 224
Flags: W
HStem: 635 142<91 104>
VStem: 24 189
LayerCount: 2
Fore
SplineSet
213 777 m 1,0,-1
 104 635 l 1,1,-1
 24 635 l 1,2,-1
 91 777 l 1,3,-1
 213 777 l 1,0,-1
EndSplineSet
EndChar

StartChar: grave
Encoding: 96 96 59
Width: 224
Flags: W
HStem: 635 142<132 145>
VStem: 24 189
LayerCount: 2
Fore
SplineSet
24 777 m 1,0,-1
 145 777 l 1,1,-1
 213 635 l 1,2,-1
 132 635 l 1,3,-1
 24 777 l 1,0,-1
EndSplineSet
EndChar

StartChar: period
Encoding: 46 46 69
Width: 207
Flags: W
HStem: -4 143<54.6582 154.342>
VStem: 33 143<17.6584 117.857>
LayerCount: 2
Fore
SplineSet
176 68 m 256,0,1
 176 38 176 38 155 17 c 128,-1,2
 134 -4 134 -4 104 -4 c 256,3,4
 74 -4 74 -4 53.5 17 c 128,-1,5
 33 38 33 38 33 68 c 256,6,7
 33 98 33 98 54 118.5 c 128,-1,8
 75 139 75 139 104 139 c 256,9,10
 134 139 134 139 155 118.5 c 128,-1,11
 176 98 176 98 176 68 c 256,0,1
EndSplineSet
EndChar

StartChar: dieresis
Encoding: 168 168 74
Width: 538
Flags: W
HStem: 639 143<39.6584 140.342 336.658 437.342>
VStem: 18 144<660.658 760.857> 315 144<660.658 760.857>
LayerCount: 2
Fore
SplineSet
459 711 m 256,0,1
 459 681 459 681 438 660 c 128,-1,2
 417 639 417 639 387 639 c 256,3,4
 357 639 357 639 336 660 c 128,-1,5
 315 681 315 681 315 711 c 256,6,7
 315 741 315 741 336 761.5 c 128,-1,8
 357 782 357 782 387 782 c 256,9,10
 417 782 417 782 438 761.5 c 128,-1,11
 459 741 459 741 459 711 c 256,0,1
162 711 m 256,12,13
 162 681 162 681 141 660 c 128,-1,14
 120 639 120 639 90 639 c 256,15,16
 60 639 60 639 39 660 c 128,-1,17
 18 681 18 681 18 711 c 256,18,19
 18 741 18 741 39 761.5 c 128,-1,20
 60 782 60 782 90 782 c 256,21,22
 120 782 120 782 141 761.5 c 128,-1,23
 162 741 162 741 162 711 c 256,12,13
EndSplineSet
EndChar

StartChar: dotlessi
Encoding: 305 305 83
Width: 291
Flags: W
HStem: 0 21G<85 207> 544 20G<85 207>
VStem: 85 122<0 564>
LayerCount: 2
Fore
SplineSet
207 0 m 1,0,-1
 85 0 l 1,1,-1
 85 564 l 1,2,-1
 207 564 l 1,3,-1
 207 0 l 1,0,-1
EndSplineSet
EndChar

StartChar: circumflex
Encoding: 710 710 87
Width: 355
Flags: W
HStem: 635 142<41 43 130 132>
VStem: 24 308
LayerCount: 2
Fore
SplineSet
221 635 m 1,0,-1
 177 714 l 1,1,-1
 134 635 l 1,2,-1
 24 635 l 1,3,-1
 132 777 l 1,4,-1
 223 777 l 1,5,-1
 332 635 l 1,6,-1
 221 635 l 1,0,-1
EndSplineSet
EndChar

StartChar: caron
Encoding: 711 711 88
Width: 353
Flags: W
HStem: 635 142<131 133 220 222>
VStem: 23 308
LayerCount: 2
Fore
SplineSet
133 777 m 1,0,-1
 176 698 l 1,1,-1
 220 777 l 1,2,-1
 331 777 l 1,3,-1
 222 635 l 1,4,-1
 131 635 l 1,5,-1
 23 777 l 1,6,-1
 133 777 l 1,0,-1
EndSplineSet
EndChar

StartChar: tilde
Encoding: 732 732 108
Width: 406
Flags: W
HStem: 660 68<200.411 298.655> 694 68<108.25 220.251>
LayerCount: 2
Fore
SplineSet
30 670 m 1,0,1
 37 687 37 687 48 703.5 c 128,-1,2
 59 720 59 720 73.5 733 c 128,-1,3
 88 746 88 746 105.5 754 c 128,-1,4
 123 762 123 762 143 762 c 0,5,6
 161 762 161 762 179.5 757 c 128,-1,7
 198 752 198 752 213.5 745 c 128,-1,8
 229 738 229 738 244 733 c 128,-1,9
 259 728 259 728 271 728 c 0,10,11
 288 728 288 728 299 736 c 128,-1,12
 310 744 310 744 318 770 c 1,13,-1
 383 751 l 1,14,15
 371 707 371 707 341 683.5 c 128,-1,16
 311 660 311 660 271 660 c 0,17,18
 254 660 254 660 237.5 665.5 c 128,-1,19
 221 671 221 671 205.5 677.5 c 128,-1,20
 190 684 190 684 175 689 c 128,-1,21
 160 694 160 694 143 694 c 256,22,23
 127 694 127 694 113.5 678.5 c 128,-1,24
 100 663 100 663 91 643 c 1,25,-1
 30 670 l 1,0,1
EndSplineSet
EndChar

StartChar: three
Encoding: 51 51 117
Width: 578
Flags: W
HStem: -5 86<120.248 342.211> 341 81<171 339.534> 650 91<116.65 334.331>
VStem: 371 112<458.776 615.155> 394 115<133.355 292.15>
LayerCount: 2
Fore
SplineSet
367 388 m 1,0,1
 390 385 390 385 414.5 373 c 128,-1,2
 439 361 439 361 460 339 c 128,-1,3
 481 317 481 317 495 285.5 c 128,-1,4
 509 254 509 254 509 213 c 0,5,6
 509 163 509 163 494.5 126.5 c 128,-1,7
 480 90 480 90 458 66 c 128,-1,8
 436 42 436 42 408.5 27.5 c 128,-1,9
 381 13 381 13 355 6 c 128,-1,10
 329 -1 329 -1 307.5 -3 c 128,-1,11
 286 -5 286 -5 274 -5 c 0,12,13
 190 -5 190 -5 141.5 6.5 c 128,-1,14
 93 18 93 18 74 30 c 1,15,-1
 101 116 l 1,16,17
 110 111 110 111 118 105 c 128,-1,18
 126 99 126 99 141 93.5 c 128,-1,19
 156 88 156 88 183 84.5 c 128,-1,20
 210 81 210 81 257 81 c 0,21,22
 326 81 326 81 360 118.5 c 128,-1,23
 394 156 394 156 394 213 c 0,24,25
 394 267 394 267 363 304 c 128,-1,26
 332 341 332 341 272 341 c 2,27,-1
 170 341 l 1,28,-1
 171 341 l 1,29,-1
 170 422 l 1,30,-1
 238 422 l 2,31,32
 260 422 260 422 282.5 423 c 128,-1,33
 305 424 305 424 325 434 c 128,-1,34
 345 444 345 444 358 468 c 128,-1,35
 371 492 371 492 371 537 c 0,36,37
 371 555 371 555 368 575 c 128,-1,38
 365 595 365 595 351.5 612 c 128,-1,39
 338 629 338 629 312 639.5 c 128,-1,40
 286 650 286 650 240 650 c 256,41,42
 194 650 194 650 166.5 641.5 c 128,-1,43
 139 633 139 633 125 628 c 1,44,-1
 90 718 l 1,45,46
 114 725 114 725 149.5 733 c 128,-1,47
 185 741 185 741 252 741 c 0,48,49
 299 741 299 741 341 729.5 c 128,-1,50
 383 718 383 718 414.5 693 c 128,-1,51
 446 668 446 668 464.5 629 c 128,-1,52
 483 590 483 590 483 537 c 0,53,54
 483 506 483 506 472 480.5 c 128,-1,55
 461 455 461 455 444 436 c 128,-1,56
 427 417 427 417 406 404.5 c 128,-1,57
 385 392 385 392 367 388 c 1,0,1
EndSplineSet
EndChar

StartChar: four
Encoding: 52 52 118
Width: 621
Flags: W
HStem: 0 21G<357 479> 172 95<145 357 479 556> 717 20G<343.426 479>
VStem: 357 122<0 172 267 597>
LayerCount: 2
Fore
SplineSet
357 172 m 1,0,-1
 38 172 l 1,1,-1
 38 267 l 1,2,-1
 357 737 l 1,3,-1
 479 737 l 1,4,-1
 479 267 l 1,5,-1
 556 267 l 1,6,-1
 556 172 l 1,7,-1
 479 172 l 1,8,-1
 479 0 l 1,9,-1
 357 0 l 1,10,-1
 357 172 l 1,0,-1
357 267 m 1,11,-1
 357 597 l 1,12,-1
 145 267 l 1,13,-1
 357 267 l 1,11,-1
EndSplineSet
EndChar

StartChar: aid
Encoding: 65541 -1 119
Width: 1090
Flags: W
HStem: 0 190<406 485 607 687> 312 191<406 485 607 687> 644 62<406 687>
VStem: 344 62<564 644> 687 62<564 644>
LayerCount: 2
Fore
SplineSet
811 564 m 2,0,1
 850 564 850 564 878 559 c 128,-1,2
 906 554 906 554 924 538.5 c 128,-1,3
 942 523 942 523 950.5 495.5 c 128,-1,4
 959 468 959 468 959 422 c 2,5,-1
 959 142 l 2,6,7
 959 112 959 112 958.5 86 c 128,-1,8
 958 60 958 60 945 41.5 c 128,-1,9
 932 23 932 23 901 11.5 c 128,-1,10
 870 0 870 0 811 0 c 2,11,-1
 263 0 l 2,12,13
 210 0 210 0 183 12.5 c 128,-1,14
 156 25 156 25 145 45 c 128,-1,15
 134 65 134 65 133.5 90.5 c 128,-1,16
 133 116 133 116 133 142 c 2,17,-1
 133 422 l 2,18,19
 133 452 133 452 133.5 478 c 128,-1,20
 134 504 134 504 147 523 c 128,-1,21
 160 542 160 542 190.5 553 c 128,-1,22
 221 564 221 564 282 564 c 2,23,-1
 344 564 l 1,24,-1
 344 706 l 1,25,-1
 749 706 l 1,26,-1
 749 564 l 1,27,-1
 811 564 l 2,0,1
687 312 m 1,28,-1
 607 312 l 1,29,-1
 607 392 l 1,30,-1
 485 392 l 1,31,-1
 485 312 l 1,32,-1
 406 312 l 1,33,-1
 406 190 l 1,34,-1
 485 190 l 1,35,-1
 485 111 l 1,36,-1
 607 111 l 1,37,-1
 607 190 l 1,38,-1
 687 190 l 1,39,-1
 687 312 l 1,28,-1
687 644 m 1,40,-1
 406 644 l 1,41,-1
 406 503 l 1,42,-1
 687 503 l 1,43,-1
 687 644 l 1,40,-1
EndSplineSet
EndChar

StartChar: seven
Encoding: 55 55 120
Width: 569
Flags: W
HStem: 0 21G<128 247.761> 639 98<63 384>
LayerCount: 2
Fore
SplineSet
128 0 m 1,0,-1
 384 639 l 1,1,-1
 63 639 l 1,2,-1
 63 737 l 1,3,-1
 526 737 l 1,4,-1
 240 0 l 1,5,-1
 128 0 l 1,0,-1
EndSplineSet
EndChar

StartChar: ring
Encoding: 730 730 121
Width: 390
Flags: W
HStem: 635 60<148.8 242.561> 823 61<148.439 242.545>
VStem: 71 60<712.8 805.616> 260 59<712.439 805.965>
LayerCount: 2
Fore
SplineSet
196 884 m 256,0,1
 222 884 222 884 244 874 c 128,-1,2
 266 864 266 864 283 847 c 128,-1,3
 300 830 300 830 309.5 807.5 c 128,-1,4
 319 785 319 785 319 760 c 256,5,6
 319 734 319 734 309.5 711 c 128,-1,7
 300 688 300 688 283 671 c 128,-1,8
 266 654 266 654 243.5 644.5 c 128,-1,9
 221 635 221 635 196 635 c 256,10,11
 170 635 170 635 147 644.5 c 128,-1,12
 124 654 124 654 107 671 c 128,-1,13
 90 688 90 688 80.5 711 c 128,-1,14
 71 734 71 734 71 760 c 256,15,16
 71 786 71 786 80.5 808 c 128,-1,17
 90 830 90 830 107 847 c 128,-1,18
 124 864 124 864 147 874 c 128,-1,19
 170 884 170 884 196 884 c 256,0,1
196 695 m 256,20,21
 223 695 223 695 241.5 714 c 128,-1,22
 260 733 260 733 260 760 c 256,23,24
 260 787 260 787 241 805 c 128,-1,25
 222 823 222 823 196 823 c 256,26,27
 169 823 169 823 150 804.5 c 128,-1,28
 131 786 131 786 131 760 c 256,29,30
 131 733 131 733 150 714 c 128,-1,31
 169 695 169 695 196 695 c 256,20,21
EndSplineSet
EndChar

StartChar: cedilla
Encoding: 184 184 124
Width: 294
Flags: W
HStem: -243 58<120 170.445> -105 42<116.443 162.922>
VStem: 174 59<-179.583 -114.967>
LayerCount: 2
Fore
SplineSet
116 -71 m 1,0,1
 133 -64 133 -64 151 -63 c 0,2,3
 169 -63 169 -63 184.5 -71 c 128,-1,4
 200 -79 200 -79 210.5 -90.5 c 128,-1,5
 221 -102 221 -102 227 -116.5 c 128,-1,6
 233 -131 233 -131 233 -145 c 0,7,8
 233 -191 233 -191 202.5 -217 c 128,-1,9
 172 -243 172 -243 120 -243 c 1,10,-1
 120 -185 l 1,11,12
 174 -185 174 -185 174 -147 c 0,13,14
 174 -130 174 -130 159.5 -117.5 c 128,-1,15
 145 -105 145 -105 121 -105 c 0,16,17
 108 -105 108 -105 89 -111 c 1,18,-1
 48 -92 l 1,19,-1
 106 7 l 1,20,-1
 183 7 l 1,21,-1
 116 -71 l 1,0,1
EndSplineSet
EndChar

StartChar: food
Encoding: 65542 -1 127
Width: 568
Flags: W
HStem: 0 21G<264 304>
VStem: 264 40<0 707>
LayerCount: 2
Fore
SplineSet
427 518 m 0,0,1
 409 500 409 500 390.5 490.5 c 128,-1,2
 372 481 372 481 357 478 c 0,3,4
 340 474 340 474 325 475 c 1,5,6
 324 490 324 490 328 508 c 0,7,8
 331 522 331 522 340 540 c 128,-1,9
 349 558 349 558 368 577 c 256,10,11
 386 595 386 595 404.5 603.5 c 128,-1,12
 423 612 423 612 437 616 c 0,13,14
 454 620 454 620 470 620 c 1,15,16
 471 605 471 605 467 587 c 0,17,18
 463 573 463 573 453.5 554.5 c 128,-1,19
 444 536 444 536 427 518 c 0,0,1
427 395 m 0,20,21
 409 377 409 377 390.5 367.5 c 128,-1,22
 372 358 372 358 357 355 c 0,23,24
 340 351 340 351 325 352 c 1,25,26
 324 366 324 366 328 384 c 0,27,28
 331 398 331 398 340 416.5 c 128,-1,29
 349 435 349 435 368 454 c 256,30,31
 386 472 386 472 404.5 480.5 c 128,-1,32
 423 489 423 489 437 494 c 0,33,34
 454 498 454 498 470 497 c 1,35,36
 471 482 471 482 467 464 c 0,37,38
 463 450 463 450 453.5 431.5 c 128,-1,39
 444 413 444 413 427 395 c 0,20,21
427 272 m 0,40,41
 409 254 409 254 390.5 245 c 128,-1,42
 372 236 372 236 357 232 c 0,43,44
 340 228 340 228 325 229 c 1,45,46
 324 243 324 243 328 261 c 0,47,48
 331 275 331 275 340 293.5 c 128,-1,49
 349 312 349 312 368 331 c 256,50,51
 386 349 386 349 404.5 358 c 128,-1,52
 423 367 423 367 437 371 c 0,53,54
 454 375 454 375 470 374 c 1,55,56
 471 359 471 359 467 341 c 0,57,58
 463 327 463 327 453.5 308.5 c 128,-1,59
 444 290 444 290 427 272 c 0,40,41
427 641 m 0,60,61
 409 623 409 623 390.5 613.5 c 128,-1,62
 372 604 372 604 357 601 c 0,63,64
 340 597 340 597 325 598 c 1,65,66
 324 613 324 613 328 631 c 0,67,68
 331 645 331 645 340 663.5 c 128,-1,69
 349 682 349 682 368 700 c 0,70,71
 386 717 386 717 404.5 726.5 c 128,-1,72
 423 736 423 736 437 739 c 0,73,74
 454 743 454 743 470 742 c 1,75,76
 471 727 471 727 467 710 c 0,77,78
 463 696 463 696 453.5 677.5 c 128,-1,79
 444 659 444 659 427 641 c 0,60,61
141 518 m 256,80,81
 159 500 159 500 178 490.5 c 128,-1,82
 197 481 197 481 211 478 c 0,83,84
 228 474 228 474 244 475 c 1,85,86
 245 490 245 490 241 508 c 0,87,88
 237 522 237 522 228 540 c 128,-1,89
 219 558 219 558 201 577 c 256,90,91
 183 595 183 595 164 603.5 c 128,-1,92
 145 612 145 612 131 616 c 0,93,94
 114 620 114 620 98 620 c 1,95,96
 97 605 97 605 101 587 c 0,97,98
 105 573 105 573 114 554.5 c 128,-1,99
 123 536 123 536 141 518 c 256,80,81
141 395 m 256,100,101
 159 377 159 377 178 367.5 c 128,-1,102
 197 358 197 358 211 355 c 0,103,104
 228 351 228 351 244 352 c 1,105,106
 245 366 245 366 241 384 c 0,107,108
 237 398 237 398 228 416.5 c 128,-1,109
 219 435 219 435 201 454 c 256,110,111
 183 472 183 472 164 480.5 c 128,-1,112
 145 489 145 489 131 494 c 0,113,114
 114 498 114 498 98 497 c 1,115,116
 97 482 97 482 101 464 c 0,117,118
 105 450 105 450 114 431.5 c 128,-1,119
 123 413 123 413 141 395 c 256,100,101
141 272 m 256,120,121
 159 254 159 254 178 245 c 128,-1,122
 197 236 197 236 211 232 c 0,123,124
 228 228 228 228 244 229 c 1,125,126
 245 243 245 243 241 261 c 0,127,128
 237 275 237 275 228 293.5 c 128,-1,129
 219 312 219 312 201 331 c 256,130,131
 183 349 183 349 164 358 c 128,-1,132
 145 367 145 367 131 371 c 0,133,134
 114 375 114 375 98 374 c 1,135,136
 97 359 97 359 101 341 c 0,137,138
 105 327 105 327 114 308.5 c 128,-1,139
 123 290 123 290 141 272 c 256,120,121
141 641 m 256,140,141
 159 623 159 623 178 613.5 c 128,-1,142
 197 604 197 604 211 601 c 0,143,144
 228 597 228 597 244 598 c 1,145,146
 245 613 245 613 241 631 c 0,147,148
 237 645 237 645 228 663.5 c 128,-1,149
 219 682 219 682 201 700 c 0,150,151
 183 717 183 717 164 726.5 c 128,-1,152
 145 736 145 736 131 739 c 0,153,154
 114 743 114 743 98 742 c 1,155,156
 97 727 97 727 101 710 c 0,157,158
 105 696 105 696 114 677.5 c 128,-1,159
 123 659 123 659 141 641 c 256,140,141
304 0 m 1,160,-1
 264 0 l 1,161,-1
 264 707 l 1,162,-1
 304 707 l 1,163,-1
 304 0 l 1,160,-1
EndSplineSet
EndChar

StartChar: up
Encoding: 65543 -1 128
Width: 820
Flags: W
HStem: 0 21G<349 471> 722 20G<390.877 431>
VStem: 349 122<0 480>
LayerCount: 2
Fore
SplineSet
737 214 m 1,0,-1
 471 480 l 1,1,-1
 471 0 l 1,2,-1
 349 0 l 1,3,-1
 349 480 l 1,4,-1
 83 214 l 1,5,-1
 83 416 l 1,6,-1
 411 742 l 1,7,-1
 737 416 l 1,8,-1
 737 214 l 1,0,-1
EndSplineSet
EndChar

StartChar: water
Encoding: 65544 -1 129
Width: 716
Flags: W
HStem: -10 153<330 488> 722 20G<334 383.5>
VStem: 102 333<152.609 290> 531 83<155.544 306.195>
LayerCount: 2
Fore
SplineSet
359 742 m 1,0,1
 408 693 408 693 454.5 633 c 128,-1,2
 501 573 501 573 536 510 c 128,-1,3
 571 447 571 447 592.5 383 c 128,-1,4
 614 319 614 319 614 261 c 256,5,6
 614 203 614 203 596.5 153 c 128,-1,7
 579 103 579 103 545.5 67 c 128,-1,8
 512 31 512 31 465 10.5 c 128,-1,9
 418 -10 418 -10 359 -10 c 256,10,11
 301 -10 301 -10 253.5 10.5 c 128,-1,12
 206 31 206 31 172 67 c 128,-1,13
 138 103 138 103 120 153 c 128,-1,14
 102 203 102 203 102 261 c 256,15,16
 102 319 102 319 123.5 383 c 128,-1,17
 145 447 145 447 181 510 c 128,-1,18
 217 573 217 573 263 633 c 128,-1,19
 309 693 309 693 359 742 c 1,0,1
482 143 m 0,20,21
 494 143 494 143 503.5 150.5 c 128,-1,22
 513 158 513 158 519 168.5 c 128,-1,23
 525 179 525 179 528 191 c 128,-1,24
 531 203 531 203 531 213 c 0,25,26
 531 231 531 231 526.5 250.5 c 128,-1,27
 522 270 522 270 515.5 288.5 c 128,-1,28
 509 307 509 307 501.5 323.5 c 128,-1,29
 494 340 494 340 486 352 c 1,30,31
 486 328 486 328 478.5 304.5 c 128,-1,32
 471 281 471 281 464 267 c 1,33,34
 460 257 460 257 455 250 c 128,-1,35
 450 243 450 243 445.5 235 c 128,-1,36
 441 227 441 227 438 218 c 128,-1,37
 435 209 435 209 435 197 c 0,38,39
 435 172 435 172 451 157.5 c 128,-1,40
 467 143 467 143 482 143 c 0,20,21
EndSplineSet
EndChar

StartChar: shelter
Encoding: 65545 -1 130
Width: 859
Flags: W
HStem: 0 21G<164 255 369 490 604 695>
VStem: 102 153<314 403> 164 91<0 314> 369 121<0 221> 604 153<314 403> 604 91<0 314>
LayerCount: 2
Fore
SplineSet
369 0 m 1,0,-1
 369 221 l 1,1,-1
 490 221 l 1,2,-1
 490 0 l 1,3,-1
 369 0 l 1,0,-1
430 730 m 1,4,-1
 757 403 l 1,5,-1
 757 253 l 1,6,-1
 695 314 l 1,7,-1
 695 0 l 1,8,-1
 604 0 l 1,9,-1
 604 406 l 1,10,-1
 430 581 l 1,11,-1
 255 406 l 1,12,-1
 255 0 l 1,13,-1
 164 0 l 1,14,-1
 164 314 l 1,15,-1
 102 253 l 1,16,-1
 102 403 l 1,17,-1
 430 730 l 1,4,-1
EndSplineSet
EndChar

StartChar: transport
Encoding: 65546 -1 131
Width: 881
Flags: W
HStem: -2 188<204.398 289.983 591.533 672.983> 104 286<307 574> 302 88<216.467 289.467 591.533 665.846> 648 82<240.084 645.669>
VStem: 140 77<390 625.37> 140 51<199.398 288.984> 191 116<1.56946 104> 307 267<204.048 284.467> 574 116<1.56946 104> 666 75<390 627.667> 690 51<204.048 284.983>
LayerCount: 2
Fore
SplineSet
741 308 m 1,0,-1
 741 264 l 1,1,-1
 741 104 l 1,2,-1
 690 104 l 1,3,-1
 690 40 l 2,4,5
 690 35 690 35 689.5 27.5 c 128,-1,6
 689 20 689 20 684.5 13.5 c 128,-1,7
 680 7 680 7 670 2.5 c 128,-1,8
 660 -2 660 -2 643 -2 c 2,9,-1
 616 -2 l 2,10,11
 601 -2 601 -2 592.5 3 c 128,-1,12
 584 8 584 8 579.5 16 c 128,-1,13
 575 24 575 24 574.5 33 c 128,-1,14
 574 42 574 42 574 50 c 2,15,-1
 574 104 l 1,16,-1
 307 104 l 1,17,-1
 307 40 l 2,18,19
 307 35 307 35 306.5 27.5 c 128,-1,20
 306 20 306 20 301.5 13.5 c 128,-1,21
 297 7 297 7 288 2.5 c 128,-1,22
 279 -2 279 -2 260 -2 c 2,23,-1
 234 -2 l 2,24,25
 219 -2 219 -2 210.5 3 c 128,-1,26
 202 8 202 8 198 16 c 128,-1,27
 194 24 194 24 192.5 33 c 128,-1,28
 191 42 191 42 191 50 c 2,29,-1
 191 104 l 1,30,-1
 140 104 l 1,31,-1
 140 588 l 2,32,33
 140 617 140 617 140.5 643 c 128,-1,34
 141 669 141 669 154.5 688.5 c 128,-1,35
 168 708 168 708 198 719 c 128,-1,36
 228 730 228 730 289 730 c 2,37,-1
 611 730 l 2,38,39
 664 730 664 730 691 718 c 128,-1,40
 718 706 718 706 729 686 c 128,-1,41
 740 666 740 666 740.5 640 c 128,-1,42
 741 614 741 614 741 588 c 2,43,-1
 741 308 l 1,0,-1
331 648 m 2,44,45
 288 648 288 648 265 639.5 c 128,-1,46
 242 631 242 631 231 616.5 c 128,-1,47
 220 602 220 602 218.5 583.5 c 128,-1,48
 217 565 217 565 217 546 c 0,49,50
 217 540 217 540 217 502.5 c 128,-1,51
 217 465 217 465 216 390 c 1,52,-1
 666 390 l 1,53,-1
 666 548 l 2,54,55
 666 566 666 566 664.5 584 c 128,-1,56
 663 602 663 602 653.5 616.5 c 128,-1,57
 644 631 644 631 623.5 639.5 c 128,-1,58
 603 648 603 648 566 648 c 2,59,-1
 331 648 l 2,44,45
250 186 m 256,60,61
 274 186 274 186 290.5 203.5 c 128,-1,62
 307 221 307 221 307 245 c 256,63,64
 307 269 307 269 290 285.5 c 128,-1,65
 273 302 273 302 250 302 c 256,66,67
 226 302 226 302 208.5 285 c 128,-1,68
 191 268 191 268 191 245 c 256,69,70
 191 221 191 221 208.5 203.5 c 128,-1,71
 226 186 226 186 250 186 c 256,60,61
633 186 m 0,72,73
 657 186 657 186 673.5 203.5 c 128,-1,74
 690 221 690 221 690 245 c 256,75,76
 690 269 690 269 673 285.5 c 128,-1,77
 656 302 656 302 633 302 c 0,78,79
 608 302 608 302 591 285 c 128,-1,80
 574 268 574 268 574 245 c 256,81,82
 574 221 574 221 591 203.5 c 128,-1,83
 608 186 608 186 633 186 c 0,72,73
EndSplineSet
EndChar

StartChar: woman
Encoding: 65547 -1 132
Width: 467
Flags: W
HStem: 0 21G<196.022 273.978> 535 60<147.337 161 309 322.5> 642 143<185.658 285.857>
VStem: 96 51<334 535> 164 143<663.658 763.342> 184 102<82.5452 184 385.894 447.049> 197 76<0 146.546> 323 50<334 535>
LayerCount: 2
Fore
SplineSet
236 642 m 256,0,1
 206 642 206 642 185 663 c 128,-1,2
 164 684 164 684 164 714 c 256,3,4
 164 744 164 744 185 764.5 c 128,-1,5
 206 785 206 785 236 785 c 256,6,7
 266 785 266 785 286.5 764 c 128,-1,8
 307 743 307 743 307 714 c 256,9,10
 307 684 307 684 286.5 663 c 128,-1,11
 266 642 266 642 236 642 c 256,0,1
373 550 m 1,12,-1
 373 334 l 1,13,-1
 323 334 l 1,14,-1
 323 535 l 1,15,-1
 309 535 l 1,16,-1
 286 433 l 1,17,-1
 286 398 l 1,18,-1
 342 184 l 1,19,-1
 282 184 l 1,20,-1
 273 0 l 1,21,-1
 197 0 l 1,22,-1
 188 184 l 1,23,-1
 128 184 l 1,24,-1
 184 398 l 1,25,-1
 184 434 l 1,26,-1
 161 535 l 1,27,-1
 147 535 l 1,28,-1
 147 334 l 1,29,-1
 96 334 l 1,30,-1
 96 535 l 2,31,32
 96 548 96 548 97 558.5 c 128,-1,33
 98 569 98 569 104.5 577.5 c 128,-1,34
 111 586 111 586 124.5 590.5 c 128,-1,35
 138 595 138 595 165 595 c 2,36,-1
 313 595 l 2,37,38
 333 595 333 595 345 591 c 128,-1,39
 357 587 357 587 363.5 579.5 c 128,-1,40
 370 572 370 572 371.5 563.5 c 128,-1,41
 373 555 373 555 373 545 c 2,42,-1
 373 529 l 1,43,-1
 373 550 l 1,12,-1
EndSplineSet
EndChar

StartChar: man
Encoding: 65548 -1 133
Width: 465
Flags: W
HStem: 0 21G<171 293> 535 60<152.125 171 293 311.55> 642 143<182.658 282.342>
VStem: 94 58<313 535> 161 143<663.658 763.342> 171 122<0 535> 312 59<313 535>
LayerCount: 2
Fore
SplineSet
371 550 m 1,0,-1
 371 313 l 1,1,-1
 312 313 l 1,2,-1
 312 535 l 1,3,-1
 293 535 l 1,4,-1
 293 0 l 1,5,-1
 171 0 l 1,6,-1
 171 535 l 1,7,-1
 152 535 l 1,8,-1
 152 313 l 1,9,-1
 94 313 l 1,10,-1
 94 535 l 1,11,-1
 94 548 l 1,12,-1
 94 550 l 2,13,14
 94 560 94 560 96.5 568.5 c 128,-1,15
 99 577 99 577 106.5 583 c 128,-1,16
 114 589 114 589 127 592 c 128,-1,17
 140 595 140 595 163 595 c 2,18,-1
 310 595 l 2,19,20
 335 595 335 595 347 589.5 c 128,-1,21
 359 584 359 584 365 574.5 c 128,-1,22
 371 565 371 565 371 553.5 c 128,-1,23
 371 542 371 542 371 529 c 2,24,-1
 371 550 l 1,0,-1
371 400 m 1,25,-1
 371 380 l 1,26,-1
 371 400 l 1,25,-1
232 642 m 256,27,28
 202 642 202 642 181.5 663 c 128,-1,29
 161 684 161 684 161 714 c 256,30,31
 161 744 161 744 182 764.5 c 128,-1,32
 203 785 203 785 232 785 c 256,33,34
 262 785 262 785 283 764 c 128,-1,35
 304 743 304 743 304 714 c 256,36,37
 304 684 304 684 283 663 c 128,-1,38
 262 642 262 642 232 642 c 256,27,28
EndSplineSet
EndChar

StartChar: downright
Encoding: 65549 -1 134
Width: 827
Flags: W
HStem: 0 141<234 469> 547 20G<195 235>
VStem: 555 142<227 462>
LayerCount: 2
Fore
SplineSet
697 462 m 1,0,-1
 697 0 l 1,1,-1
 234 0 l 1,2,-1
 92 141 l 1,3,-1
 469 141 l 1,4,-1
 129 481 l 1,5,-1
 215 567 l 1,6,-1
 555 227 l 1,7,-1
 555 604 l 1,8,-1
 697 462 l 1,0,-1
EndSplineSet
EndChar

StartChar: six
Encoding: 54 54 135
Width: 646
Flags: W
HStem: -6 97<256.461 402.458> 410 89<254.642 403.733> 649 93<273.659 483.326>
VStem: 73 113<165.578 338.636> 470 105<162.665 341.605>
LayerCount: 2
Fore
SplineSet
347 499 m 256,0,1
 399 499 399 499 441.5 478 c 128,-1,2
 484 457 484 457 514 423 c 128,-1,3
 544 389 544 389 559.5 347 c 128,-1,4
 575 305 575 305 575 263 c 0,5,6
 575 185 575 185 550 133.5 c 128,-1,7
 525 82 525 82 488 50.5 c 128,-1,8
 451 19 451 19 408 6.5 c 128,-1,9
 365 -6 365 -6 329 -6 c 0,10,11
 263 -6 263 -6 215 16 c 128,-1,12
 167 38 167 38 135 78 c 128,-1,13
 103 118 103 118 88 172 c 128,-1,14
 73 226 73 226 73 291 c 0,15,16
 73 423 73 423 97 510.5 c 128,-1,17
 121 598 121 598 159.5 649 c 128,-1,18
 198 700 198 700 245.5 721 c 128,-1,19
 293 742 293 742 340 742 c 0,20,21
 396 742 396 742 445.5 735 c 128,-1,22
 495 728 495 728 530 705 c 1,23,-1
 492 622 l 1,24,25
 464 640 464 640 430 644.5 c 128,-1,26
 396 649 396 649 351 649 c 0,27,28
 310 649 310 649 280 631 c 128,-1,29
 250 613 250 613 230.5 583 c 128,-1,30
 211 553 211 553 201 514 c 128,-1,31
 191 475 191 475 191 433 c 1,32,33
 192 434 192 434 195 434 c 128,-1,34
 198 434 198 434 199 435 c 0,35,36
 212 462 212 462 253.5 480.5 c 128,-1,37
 295 499 295 499 347 499 c 256,0,1
330 91 m 0,38,39
 360 91 360 91 385.5 103.5 c 128,-1,40
 411 116 411 116 430 137.5 c 128,-1,41
 449 159 449 159 459.5 188.5 c 128,-1,42
 470 218 470 218 470 253 c 256,43,44
 470 288 470 288 459.5 316.5 c 128,-1,45
 449 345 449 345 430 365.5 c 128,-1,46
 411 386 411 386 385 398 c 128,-1,47
 359 410 359 410 330 410 c 0,48,49
 299 410 299 410 273 398 c 128,-1,50
 247 386 247 386 228 365.5 c 128,-1,51
 209 345 209 345 197.5 316.5 c 128,-1,52
 186 288 186 288 186 253 c 256,53,54
 186 218 186 218 197.5 188.5 c 128,-1,55
 209 159 209 159 228 137.5 c 128,-1,56
 247 116 247 116 273 103.5 c 128,-1,57
 299 91 299 91 330 91 c 0,38,39
EndSplineSet
EndChar

StartChar: nine
Encoding: 57 57 136
Width: 645
Flags: W
HStem: -5 94<163.745 371.389> 2.5 114.5<150.632 212.359> 238 89<239.498 392.741> 645 97<241.687 390.135>
VStem: 70 105<395.387 573.357> 459 113<397.42 570.834>
LayerCount: 2
Fore
SplineSet
298 238 m 256,0,1
 246 238 246 238 203.5 259 c 128,-1,2
 161 280 161 280 131 313.5 c 128,-1,3
 101 347 101 347 85.5 389 c 128,-1,4
 70 431 70 431 70 473 c 0,5,6
 70 551 70 551 95 602.5 c 128,-1,7
 120 654 120 654 157.5 685.5 c 128,-1,8
 195 717 195 717 238 729.5 c 128,-1,9
 281 742 281 742 316 742 c 0,10,11
 382 742 382 742 430 720 c 128,-1,12
 478 698 478 698 510 658 c 128,-1,13
 542 618 542 618 557 564 c 128,-1,14
 572 510 572 510 572 445 c 0,15,16
 572 313 572 313 548 226 c 128,-1,17
 524 139 524 139 485.5 87.5 c 128,-1,18
 447 36 447 36 399.5 15.5 c 128,-1,19
 352 -5 352 -5 305 -5 c 0,20,21
 249 -5 249 -5 200 2.5 c 128,-1,22
 151 10 151 10 115 34 c 1,23,-1
 154 117 l 1,24,25
 182 99 182 99 215.5 94 c 128,-1,26
 249 89 249 89 294 89 c 0,27,28
 335 89 335 89 365 107 c 128,-1,29
 395 125 395 125 414.5 154.5 c 128,-1,30
 434 184 434 184 444 222.5 c 128,-1,31
 454 261 454 261 454 303 c 1,32,33
 453 302 453 302 450 302 c 128,-1,34
 447 302 447 302 446 301 c 0,35,36
 433 274 433 274 391.5 256 c 128,-1,37
 350 238 350 238 298 238 c 256,0,1
315 645 m 0,38,39
 285 645 285 645 259.5 633 c 128,-1,40
 234 621 234 621 215.5 599.5 c 128,-1,41
 197 578 197 578 186 548 c 128,-1,42
 175 518 175 518 175 483 c 256,43,44
 175 448 175 448 186 419.5 c 128,-1,45
 197 391 197 391 215.5 370 c 128,-1,46
 234 349 234 349 260 338 c 128,-1,47
 286 327 286 327 315 327 c 0,48,49
 346 327 346 327 372 338 c 128,-1,50
 398 349 398 349 417 370 c 128,-1,51
 436 391 436 391 447.5 420 c 128,-1,52
 459 449 459 449 459 483 c 256,53,54
 459 518 459 518 447.5 548 c 128,-1,55
 436 578 436 578 417 599.5 c 128,-1,56
 398 621 398 621 372 633 c 128,-1,57
 346 645 346 645 315 645 c 0,38,39
EndSplineSet
EndChar

StartChar: five
Encoding: 53 53 138
Width: 605
Flags: W
HStem: -5 89<162.144 358.555> 362 96<188.478 371.021> 639 98<213 488>
VStem: 422 106<146.21 313.038>
LayerCount: 2
Fore
SplineSet
213 639 m 1,0,1
 203 565 203 565 197 524 c 128,-1,2
 191 483 191 483 188.5 463 c 128,-1,3
 186 443 186 443 185.5 438.5 c 128,-1,4
 185 434 185 434 185 433 c 1,5,6
 192 440 192 440 208 445 c 128,-1,7
 224 450 224 450 242 453 c 128,-1,8
 260 456 260 456 277.5 457 c 128,-1,9
 295 458 295 458 305 458 c 0,10,11
 357 458 357 458 398.5 439.5 c 128,-1,12
 440 421 440 421 469 390 c 128,-1,13
 498 359 498 359 513 320 c 128,-1,14
 528 281 528 281 528 239 c 0,15,16
 528 157 528 157 501 108.5 c 128,-1,17
 474 60 474 60 434.5 34.5 c 128,-1,18
 395 9 395 9 352 2 c 128,-1,19
 309 -5 309 -5 278 -5 c 0,20,21
 244 -5 244 -5 213 0.5 c 128,-1,22
 182 6 182 6 156.5 14.5 c 128,-1,23
 131 23 131 23 112 31.5 c 128,-1,24
 93 40 93 40 83 45 c 1,25,-1
 83 145 l 1,26,27
 97 136 97 136 118.5 125.5 c 128,-1,28
 140 115 140 115 164 105.5 c 128,-1,29
 188 96 188 96 214.5 90 c 128,-1,30
 241 84 241 84 264 84 c 0,31,32
 338 84 338 84 380 122 c 128,-1,33
 422 160 422 160 422 239 c 0,34,35
 422 296 422 296 385.5 329 c 128,-1,36
 349 362 349 362 290 362 c 0,37,38
 254 362 254 362 221 353.5 c 128,-1,39
 188 345 188 345 164 326 c 1,40,-1
 78 326 l 1,41,42
 78 334 78 334 80 356 c 128,-1,43
 82 378 82 378 85 408.5 c 128,-1,44
 88 439 88 439 92 475 c 128,-1,45
 96 511 96 511 100 548 c 0,46,47
 110 634 110 634 123 737 c 1,48,-1
 488 737 l 1,49,-1
 488 639 l 1,50,-1
 213 639 l 1,0,1
EndSplineSet
EndChar

StartChar: eight
Encoding: 56 56 139
Width: 607
Flags: W
HStem: -9 94<230.316 385.171> 646 96<232.358 381.963>
VStem: 72 107<133.274 272.818> 95 103<502.331 613.09> 407 102<480.936 620.734> 429 108<127.028 241.642>
LayerCount: 2
Fore
SplineSet
310 742 m 0,0,1
 364 742 364 742 402 726.5 c 128,-1,2
 440 711 440 711 463.5 684.5 c 128,-1,3
 487 658 487 658 498 624 c 128,-1,4
 509 590 509 590 509 553 c 0,5,6
 509 529 509 529 499.5 506.5 c 128,-1,7
 490 484 490 484 475 463 c 128,-1,8
 460 442 460 442 441 423 c 128,-1,9
 422 404 422 404 402 388 c 1,10,11
 429 371 429 371 453.5 351.5 c 128,-1,12
 478 332 478 332 496.5 308.5 c 128,-1,13
 515 285 515 285 526 257 c 128,-1,14
 537 229 537 229 537 196 c 0,15,16
 537 148 537 148 518.5 110 c 128,-1,17
 500 72 500 72 469 45.5 c 128,-1,18
 438 19 438 19 397 5 c 128,-1,19
 356 -9 356 -9 310 -9 c 0,20,21
 195 -9 195 -9 133.5 44 c 128,-1,22
 72 97 72 97 72 191 c 0,23,24
 72 265 72 265 106.5 315.5 c 128,-1,25
 141 366 141 366 197 391 c 1,26,27
 154 422 154 422 124.5 460.5 c 128,-1,28
 95 499 95 499 95 551 c 0,29,30
 95 597 95 597 112 633 c 128,-1,31
 129 669 129 669 158 693.5 c 128,-1,32
 187 718 187 718 226.5 730 c 128,-1,33
 266 742 266 742 310 742 c 0,0,1
429 182 m 0,34,35
 429 208 429 208 415 230 c 128,-1,36
 401 252 401 252 378.5 271.5 c 128,-1,37
 356 291 356 291 327.5 309 c 128,-1,38
 299 327 299 327 268 345 c 1,39,40
 255 334 255 334 239.5 320 c 128,-1,41
 224 306 224 306 211 288 c 128,-1,42
 198 270 198 270 188.5 247 c 128,-1,43
 179 224 179 224 179 197 c 0,44,45
 179 173 179 173 189 152.5 c 128,-1,46
 199 132 199 132 216.5 117 c 128,-1,47
 234 102 234 102 258.5 93.5 c 128,-1,48
 283 85 283 85 310 85 c 0,49,50
 335 85 335 85 357 93 c 128,-1,51
 379 101 379 101 395 115 c 128,-1,52
 411 129 411 129 420 146.5 c 128,-1,53
 429 164 429 164 429 182 c 0,34,35
198 549 m 0,54,55
 198 532 198 532 209 516 c 128,-1,56
 220 500 220 500 239.5 485.5 c 128,-1,57
 259 471 259 471 284 456.5 c 128,-1,58
 309 442 309 442 337 427 c 1,59,60
 363 449 363 449 385 479 c 128,-1,61
 407 509 407 509 407 551 c 0,62,63
 407 580 407 580 399 598 c 128,-1,64
 391 616 391 616 378.5 627 c 128,-1,65
 366 638 366 638 348.5 642 c 128,-1,66
 331 646 331 646 311 646 c 0,67,68
 262 646 262 646 230 622 c 128,-1,69
 198 598 198 598 198 549 c 0,54,55
EndSplineSet
EndChar

StartChar: I
Encoding: 73 73 140
Width: 308
Flags: W
HStem: 0 21G<94 216> 717 20G<94 216>
VStem: 94 122<0 737>
LayerCount: 2
Fore
SplineSet
216 0 m 1,0,-1
 94 0 l 1,1,-1
 94 737 l 1,2,-1
 216 737 l 1,3,-1
 216 0 l 1,0,-1
EndSplineSet
EndChar

StartChar: H
Encoding: 72 72 141
Width: 749
Flags: W
HStem: 0 21G<94 216 535 655> 332 82<216 535> 717 20G<94 216 535 655>
VStem: 94 122<0 332 414 737> 535 120<0 332 414 737>
LayerCount: 2
Fore
SplineSet
655 737 m 1,0,-1
 655 0 l 1,1,-1
 535 0 l 1,2,-1
 535 332 l 1,3,-1
 216 332 l 1,4,-1
 216 0 l 1,5,-1
 94 0 l 1,6,-1
 94 737 l 1,7,-1
 216 737 l 1,8,-1
 216 414 l 1,9,-1
 535 414 l 1,10,-1
 535 737 l 1,11,-1
 655 737 l 1,0,-1
EndSplineSet
EndChar

StartChar: a
Encoding: 97 97 142
Width: 600
Flags: W
HStem: -5 81<206.884 335.666> -1 21G<488.5 504.552> 273 71<223.436 374> 485 83<195.5 353.473>
VStem: 71 113<98.7983 235.867> 375 120<109.417 273 344 463.641>
LayerCount: 2
Fore
SplineSet
495 175 m 1,0,-1
 495 167 l 2,1,2
 495 159 495 159 496 143.5 c 128,-1,3
 497 128 497 128 500 112 c 128,-1,4
 503 96 503 96 509.5 83 c 128,-1,5
 516 70 516 70 527 66 c 1,6,-1
 495 -1 l 1,7,8
 482 -1 482 -1 467.5 5 c 128,-1,9
 453 11 453 11 439.5 22 c 128,-1,10
 426 33 426 33 416.5 46.5 c 128,-1,11
 407 60 407 60 402 76 c 1,12,13
 395 59 395 59 377.5 44.5 c 128,-1,14
 360 30 360 30 338 18.5 c 128,-1,15
 316 7 316 7 290.5 1 c 128,-1,16
 265 -5 265 -5 243 -5 c 0,17,18
 209 -5 209 -5 177.5 4 c 128,-1,19
 146 13 146 13 122 33 c 128,-1,20
 98 53 98 53 84.5 86 c 128,-1,21
 71 119 71 119 71 167 c 0,22,23
 71 213 71 213 90.5 246.5 c 128,-1,24
 110 280 110 280 140.5 301.5 c 128,-1,25
 171 323 171 323 210 333.5 c 128,-1,26
 249 344 249 344 289 344 c 2,27,-1
 374 344 l 1,28,29
 374 393 374 393 369 422 c 128,-1,30
 364 451 364 451 352 464.5 c 128,-1,31
 340 478 340 478 322.5 481.5 c 128,-1,32
 305 485 305 485 281 485 c 0,33,34
 259 485 259 485 239.5 479.5 c 128,-1,35
 220 474 220 474 203.5 466.5 c 128,-1,36
 187 459 187 459 174.5 450 c 128,-1,37
 162 441 162 441 156 436 c 1,38,-1
 111 505 l 1,39,40
 121 516 121 516 141 527.5 c 128,-1,41
 161 539 161 539 187 548 c 128,-1,42
 213 557 213 557 243.5 562.5 c 128,-1,43
 274 568 274 568 307 568 c 0,44,45
 337 568 337 568 365.5 562 c 128,-1,46
 394 556 394 556 417.5 542 c 128,-1,47
 441 528 441 528 458.5 504.5 c 128,-1,48
 476 481 476 481 483 446 c 256,49,50
 490 411 490 411 492.5 375.5 c 128,-1,51
 495 340 495 340 495 305 c 2,52,-1
 495 175 l 1,0,-1
375 273 m 1,53,-1
 311 273 l 2,54,55
 291 273 291 273 269 269 c 128,-1,56
 247 265 247 265 228 254 c 128,-1,57
 209 243 209 243 196.5 222.5 c 128,-1,58
 184 202 184 202 184 170 c 0,59,60
 184 120 184 120 206.5 98 c 128,-1,61
 229 76 229 76 272 76 c 0,62,63
 302 76 302 76 329.5 92 c 128,-1,64
 357 108 357 108 375 135 c 1,65,-1
 375 273 l 1,53,-1
EndSplineSet
EndChar

StartChar: ampersand
Encoding: 38 38 144
Width: 705
Flags: W
HStem: -7 87<202.185 344.717> 647 97<242.691 368.795>
VStem: 73 97<112.731 245.985> 122 97<501.568 623.36> 394 93<497.783 623.228>
LayerCount: 2
Fore
SplineSet
528 0 m 1,0,-1
 459 86 l 1,1,2
 427 43 427 43 375 18 c 128,-1,3
 323 -7 323 -7 252 -7 c 0,4,5
 220 -7 220 -7 188.5 3 c 128,-1,6
 157 13 157 13 131 35 c 128,-1,7
 105 57 105 57 89 91.5 c 128,-1,8
 73 126 73 126 73 173 c 0,9,10
 73 213 73 213 85 247 c 128,-1,11
 97 281 97 281 117 308.5 c 128,-1,12
 137 336 137 336 162.5 358.5 c 128,-1,13
 188 381 188 381 214 397 c 1,14,15
 202 409 202 409 186 426.5 c 128,-1,16
 170 444 170 444 155.5 466 c 128,-1,17
 141 488 141 488 131.5 516 c 128,-1,18
 122 544 122 544 122 575 c 0,19,20
 122 610 122 610 135 641 c 128,-1,21
 148 672 148 672 173 695 c 128,-1,22
 198 718 198 718 231 731 c 128,-1,23
 264 744 264 744 304 744 c 0,24,25
 339 744 339 744 372.5 733.5 c 128,-1,26
 406 723 406 723 431.5 701.5 c 128,-1,27
 457 680 457 680 472 646.5 c 128,-1,28
 487 613 487 613 487 568 c 1,29,30
 485 529 485 529 473 497.5 c 128,-1,31
 461 466 461 466 441.5 441 c 128,-1,32
 422 416 422 416 398.5 397.5 c 128,-1,33
 375 379 375 379 352 367 c 1,34,35
 371 340 371 340 401 308 c 128,-1,36
 431 276 431 276 458 245 c 1,37,38
 469 262 469 262 479 280.5 c 128,-1,39
 489 299 489 299 501 325 c 1,40,-1
 579 293 l 1,41,42
 568 261 568 261 552 230 c 128,-1,43
 536 199 536 199 518 168 c 1,44,-1
 653 0 l 1,45,-1
 528 0 l 1,0,-1
304 647 m 0,46,47
 289 647 289 647 273.5 642 c 128,-1,48
 258 637 258 637 245.5 627 c 128,-1,49
 233 617 233 617 226 604 c 128,-1,50
 219 591 219 591 219 575 c 0,51,52
 219 549 219 549 228 528 c 128,-1,53
 237 507 237 507 249 490 c 128,-1,54
 261 473 261 473 274 459.5 c 128,-1,55
 287 446 287 446 295 437 c 1,56,57
 344 457 344 457 369 493.5 c 128,-1,58
 394 530 394 530 394 566 c 0,59,60
 394 606 394 606 368 626.5 c 128,-1,61
 342 647 342 647 304 647 c 0,46,47
262 80 m 0,62,63
 293 80 293 80 315 88 c 128,-1,64
 337 96 337 96 354 108 c 128,-1,65
 371 120 371 120 383 133.5 c 128,-1,66
 395 147 395 147 404 159 c 1,67,68
 371 200 371 200 333 242.5 c 128,-1,69
 295 285 295 285 269 321 c 1,70,71
 217 288 217 288 193.5 248.5 c 128,-1,72
 170 209 170 209 170 173 c 0,73,74
 170 162 170 162 174.5 146 c 128,-1,75
 179 130 179 130 190 115.5 c 128,-1,76
 201 101 201 101 218 90.5 c 128,-1,77
 235 80 235 80 262 80 c 0,62,63
EndSplineSet
EndChar

StartChar: question
Encoding: 63 63 145
Width: 507
Flags: W
HStem: -4 143<145.658 245.342>
VStem: 124 143<17.6584 117.857> 150 91<203 276.706> 346 114<470.747 602.977>
LayerCount: 2
Fore
SplineSet
241 203 m 1,0,-1
 150 203 l 1,1,2
 150 262 150 262 164 299.5 c 128,-1,3
 178 337 178 337 200 362 c 128,-1,4
 222 387 222 387 247.5 404 c 128,-1,5
 273 421 273 421 295 439.5 c 128,-1,6
 317 458 317 458 331.5 482.5 c 128,-1,7
 346 507 346 507 346 547 c 0,8,9
 346 563 346 563 338 580.5 c 128,-1,10
 330 598 330 598 316 612 c 128,-1,11
 302 626 302 626 283.5 635.5 c 128,-1,12
 265 645 265 645 246 647 c 0,13,14
 210 650 210 650 187 648 c 128,-1,15
 164 646 164 646 150 641 c 128,-1,16
 136 636 136 636 128.5 631 c 128,-1,17
 121 626 121 626 115 623 c 1,18,19
 114 624 114 624 108.5 633 c 128,-1,20
 103 642 103 642 96.5 655.5 c 128,-1,21
 90 669 90 669 82 684 c 128,-1,22
 74 699 74 699 68 713 c 1,23,24
 98 732 98 732 144 740.5 c 128,-1,25
 190 749 190 749 237 749 c 0,26,27
 281 749 281 749 321 735 c 128,-1,28
 361 721 361 721 392 694.5 c 128,-1,29
 423 668 423 668 441.5 630 c 128,-1,30
 460 592 460 592 460 543 c 0,31,32
 460 490 460 490 443.5 454.5 c 128,-1,33
 427 419 427 419 403 394.5 c 128,-1,34
 379 370 379 370 350.5 352 c 128,-1,35
 322 334 322 334 297.5 314 c 128,-1,36
 273 294 273 294 257 268 c 128,-1,37
 241 242 241 242 241 203 c 1,0,-1
267 68 m 256,38,39
 267 38 267 38 246 17 c 128,-1,40
 225 -4 225 -4 196 -4 c 256,41,42
 166 -4 166 -4 145 17 c 128,-1,43
 124 38 124 38 124 68 c 256,44,45
 124 98 124 98 145 118.5 c 128,-1,46
 166 139 166 139 196 139 c 256,47,48
 226 139 226 139 246.5 118.5 c 128,-1,49
 267 98 267 98 267 68 c 256,38,39
EndSplineSet
EndChar

StartChar: exclam
Encoding: 33 33 146
Width: 292
Flags: W
HStem: -4 143<96.6582 196.342> 717 20G<85 207>
VStem: 75 143<17.6584 117.857> 85 122<512.262 737> 101 89<204 428.738>
LayerCount: 2
Fore
SplineSet
190 204 m 1,0,-1
 101 204 l 1,1,-1
 85 737 l 1,2,-1
 207 737 l 1,3,-1
 190 204 l 1,0,-1
218 68 m 256,4,5
 218 38 218 38 197 17 c 128,-1,6
 176 -4 176 -4 146 -4 c 256,7,8
 116 -4 116 -4 95.5 17 c 128,-1,9
 75 38 75 38 75 68 c 256,10,11
 75 98 75 98 96 118.5 c 128,-1,12
 117 139 117 139 146 139 c 256,13,14
 176 139 176 139 197 118.5 c 128,-1,15
 218 98 218 98 218 68 c 256,4,5
EndSplineSet
EndChar

StartChar: bar
Encoding: 124 124 147
Width: 250
Flags: W
VStem: 86 81<-242 809>
LayerCount: 2
Fore
SplineSet
167 -242 m 1,0,-1
 86 -242 l 1,1,-1
 86 809 l 1,2,-1
 167 809 l 1,3,-1
 167 -242 l 1,0,-1
EndSplineSet
EndChar

StartChar: dollar
Encoding: 36 36 148
Width: 542
Flags: W
HStem: -3 94<156.566 247>
VStem: 86 114<483.57 603.085> 247 81<-97 -3> 258 81<746.361 829> 397 112<130.004 260.674>
LayerCount: 2
Fore
SplineSet
200 547 m 0,0,1
 200 507 200 507 223 482.5 c 128,-1,2
 246 458 246 458 280 439.5 c 128,-1,3
 314 421 314 421 354 403.5 c 128,-1,4
 394 386 394 386 428.5 361 c 128,-1,5
 463 336 463 336 486 298.5 c 128,-1,6
 509 261 509 261 509 202 c 0,7,8
 509 167 509 167 496.5 134 c 128,-1,9
 484 101 484 101 460.5 74 c 128,-1,10
 437 47 437 47 404 27.5 c 128,-1,11
 371 8 371 8 328 1 c 1,12,-1
 328 -97 l 1,13,-1
 247 -97 l 1,14,-1
 247 -3 l 1,15,16
 204 -1 204 -1 158 11 c 128,-1,17
 112 23 112 23 81 49 c 1,18,-1
 102 135 l 1,19,20
 116 127 116 127 137.5 119.5 c 128,-1,21
 159 112 159 112 182 105.5 c 128,-1,22
 205 99 205 99 228 95 c 128,-1,23
 251 91 251 91 271 91 c 0,24,25
 332 91 332 91 364.5 119.5 c 128,-1,26
 397 148 397 148 397 204 c 0,27,28
 397 238 397 238 374 262 c 128,-1,29
 351 286 351 286 316.5 305.5 c 128,-1,30
 282 325 282 325 242 344.5 c 128,-1,31
 202 364 202 364 167 390.5 c 128,-1,32
 132 417 132 417 109 453 c 128,-1,33
 86 489 86 489 86 543 c 0,34,35
 86 584 86 584 99.5 618 c 128,-1,36
 113 652 113 652 136 677.5 c 128,-1,37
 159 703 159 703 190.5 719.5 c 128,-1,38
 222 736 222 736 258 743 c 1,39,-1
 258 829 l 1,40,-1
 339 829 l 1,41,-1
 339 748 l 1,42,43
 378 746 378 746 416 737.5 c 128,-1,44
 454 729 454 729 478 713 c 1,45,46
 472 700 472 700 464 684.5 c 128,-1,47
 456 669 456 669 449 655.5 c 128,-1,48
 442 642 442 642 437 633 c 128,-1,49
 432 624 432 624 431 623 c 1,50,51
 425 626 425 626 417.5 631 c 128,-1,52
 410 636 410 636 396 641 c 128,-1,53
 382 646 382 646 359 648 c 128,-1,54
 336 650 336 650 300 647 c 0,55,56
 280 645 280 645 262 635.5 c 128,-1,57
 244 626 244 626 230 612 c 128,-1,58
 216 598 216 598 208 580.5 c 128,-1,59
 200 563 200 563 200 547 c 0,0,1
EndSplineSet
EndChar

StartChar: slash
Encoding: 47 47 149
Width: 454
Flags: W
LayerCount: 2
Fore
SplineSet
115 -22 m 1,0,-1
 34 -22 l 1,1,-1
 341 799 l 1,2,-1
 422 799 l 1,3,-1
 115 -22 l 1,0,-1
EndSplineSet
EndChar

StartChar: backslash
Encoding: 92 92 150
Width: 455
Flags: W
LayerCount: 2
Fore
SplineSet
34 799 m 1,0,-1
 115 799 l 1,1,-1
 422 -22 l 1,2,-1
 341 -22 l 1,3,-1
 34 799 l 1,0,-1
EndSplineSet
EndChar

StartChar: parenleft
Encoding: 40 40 151
Width: 294
Flags: W
VStem: 58 82<177.333 546.157>
LayerCount: 2
Fore
SplineSet
171 -61 m 1,0,1
 149 -33 149 -33 129 15 c 128,-1,2
 109 63 109 63 93.5 121.5 c 128,-1,3
 78 180 78 180 68 243 c 128,-1,4
 58 306 58 306 58 361 c 0,5,6
 58 413 58 413 67 472 c 128,-1,7
 76 531 76 531 89.5 586.5 c 128,-1,8
 103 642 103 642 121.5 687 c 128,-1,9
 140 732 140 732 159 757 c 1,10,-1
 222 757 l 1,11,12
 214 746 214 746 200.5 712.5 c 128,-1,13
 187 679 187 679 174.5 626 c 128,-1,14
 162 573 162 573 151.5 501.5 c 128,-1,15
 141 430 141 430 140 341 c 0,16,17
 139 263 139 263 151 195 c 128,-1,18
 163 127 163 127 180 74.5 c 128,-1,19
 197 22 197 22 213.5 -13.5 c 128,-1,20
 230 -49 230 -49 240 -61 c 1,21,-1
 171 -61 l 1,0,1
EndSplineSet
EndChar

StartChar: parenright
Encoding: 41 41 152
Width: 293
Flags: W
VStem: 154 82<177.333 544.381>
LayerCount: 2
Fore
SplineSet
54 -61 m 1,0,1
 63 -49 63 -49 80 -13.5 c 128,-1,2
 97 22 97 22 114 74.5 c 128,-1,3
 131 127 131 127 143 195 c 128,-1,4
 155 263 155 263 154 341 c 0,5,6
 153 430 153 430 142.5 501.5 c 128,-1,7
 132 573 132 573 119 626 c 128,-1,8
 106 679 106 679 92.5 712 c 128,-1,9
 79 745 79 745 72 757 c 1,10,-1
 135 757 l 1,11,12
 153 732 153 732 171.5 687 c 128,-1,13
 190 642 190 642 204 586.5 c 128,-1,14
 218 531 218 531 227 472.5 c 128,-1,15
 236 414 236 414 236 361 c 0,16,17
 236 306 236 306 226 243 c 128,-1,18
 216 180 216 180 200.5 121.5 c 128,-1,19
 185 63 185 63 164.5 14.5 c 128,-1,20
 144 -34 144 -34 123 -61 c 1,21,-1
 54 -61 l 1,0,1
EndSplineSet
EndChar

StartChar: comma
Encoding: 44 44 154
Width: 270
Flags: W
HStem: -120 259
VStem: 65 143<17.6584 117.342>
LayerCount: 2
Fore
SplineSet
136 139 m 256,0,1
 166 139 166 139 187 118 c 128,-1,2
 208 97 208 97 208 68 c 0,3,4
 208 63 208 63 207 44.5 c 128,-1,5
 206 26 206 26 197.5 -0.5 c 128,-1,6
 189 -27 189 -27 170 -58 c 128,-1,7
 151 -89 151 -89 114 -120 c 1,8,-1
 67 -120 l 1,9,10
 87 -101 87 -101 100 -80 c 128,-1,11
 113 -59 113 -59 121 -42 c 0,12,13
 130 -23 130 -23 136 -4 c 1,14,15
 106 -4 106 -4 85.5 17 c 128,-1,16
 65 38 65 38 65 68 c 256,17,18
 65 98 65 98 85.5 118.5 c 128,-1,19
 106 139 106 139 136 139 c 256,0,1
EndSplineSet
EndChar

StartChar: bracketleft
Encoding: 91 91 155
Width: 327
Flags: W
HStem: -61 80<167 270> 676 81<167 270>
VStem: 86 184<-61 19 676 757> 86 81<19 676>
LayerCount: 2
Fore
SplineSet
270 676 m 1,0,-1
 167 676 l 1,1,-1
 167 19 l 1,2,-1
 270 19 l 1,3,-1
 270 -61 l 1,4,-1
 86 -61 l 1,5,-1
 86 757 l 1,6,-1
 270 757 l 1,7,-1
 270 676 l 1,0,-1
EndSplineSet
EndChar

StartChar: bracketright
Encoding: 93 93 156
Width: 327
Flags: W
HStem: -61 80<86 189> 676 81<86 189>
VStem: 86 184<-61 19 676 757> 189 81<19 676>
LayerCount: 2
Fore
SplineSet
86 676 m 1,0,-1
 86 757 l 1,1,-1
 270 757 l 1,2,-1
 270 -61 l 1,3,-1
 86 -61 l 1,4,-1
 86 19 l 1,5,-1
 189 19 l 1,6,-1
 189 676 l 1,7,-1
 86 676 l 1,0,-1
EndSplineSet
EndChar

StartChar: hyphen
Encoding: 45 45 157
Width: 489
Flags: W
HStem: 242 101<86 404>
VStem: 86 318<242 343>
LayerCount: 2
Fore
SplineSet
404 343 m 1,0,-1
 404 242 l 1,1,-1
 86 242 l 1,2,-1
 86 343 l 1,3,-1
 404 343 l 1,0,-1
EndSplineSet
EndChar

StartChar: plus
Encoding: 43 43 158
Width: 648
Flags: W
HStem: 0 21G<273 375> 231 102<42 273 375 606> 544 20G<273 375>
VStem: 273 102<0 231 333 564>
LayerCount: 2
Fore
SplineSet
606 231 m 1,0,-1
 375 231 l 1,1,-1
 375 0 l 1,2,-1
 273 0 l 1,3,-1
 273 231 l 1,4,-1
 42 231 l 1,5,-1
 42 333 l 1,6,-1
 273 333 l 1,7,-1
 273 564 l 1,8,-1
 375 564 l 1,9,-1
 375 333 l 1,10,-1
 606 333 l 1,11,-1
 606 231 l 1,0,-1
EndSplineSet
EndChar

StartChar: fruit
Encoding: 65550 -1 159
Width: 675
Flags: W
HStem: -5 528<253.058 441.169> 728 20G<137.5 148>
VStem: 116 462<149.888 386.625>
LayerCount: 2
Fore
SplineSet
347 523 m 0,0,1
 401 523 401 523 444 504 c 128,-1,2
 487 485 487 485 517 450.5 c 128,-1,3
 547 416 547 416 562.5 367.5 c 128,-1,4
 578 319 578 319 578 261 c 0,5,6
 578 212 578 212 561.5 164.5 c 128,-1,7
 545 117 545 117 515 79 c 128,-1,8
 485 41 485 41 442.5 18 c 128,-1,9
 400 -5 400 -5 347 -5 c 256,10,11
 294 -5 294 -5 251 18 c 128,-1,12
 208 41 208 41 178 79 c 128,-1,13
 148 117 148 117 132 164.5 c 128,-1,14
 116 212 116 212 116 261 c 0,15,16
 116 319 116 319 131 367.5 c 128,-1,17
 146 416 146 416 176 450.5 c 128,-1,18
 206 485 206 485 249 504 c 128,-1,19
 292 523 292 523 347 523 c 0,0,1
454 597 m 256,20,21
 436 579 436 579 417 569.5 c 128,-1,22
 398 560 398 560 384 557 c 0,23,24
 367 553 367 553 352 554 c 1,25,26
 351 569 351 569 355 587 c 0,27,28
 358 601 358 601 367 619 c 128,-1,29
 376 637 376 637 394 655 c 256,30,31
 412 673 412 673 431 682 c 128,-1,32
 450 691 450 691 464 695 c 0,33,34
 481 699 481 699 497 698 c 1,35,36
 498 683 498 683 494 666 c 0,37,38
 490 652 490 652 481 633.5 c 128,-1,39
 472 615 472 615 454 597 c 256,20,21
332 554 m 1,40,41
 310 553 310 553 288 558 c 0,42,43
 269 563 269 563 244 575 c 128,-1,44
 219 587 219 587 196 611 c 0,45,46
 171 636 171 636 159 660 c 128,-1,47
 147 684 147 684 142 703 c 0,48,49
 137 726 137 726 138 748 c 1,50,51
 158 748 158 748 181 742 c 0,52,53
 200 737 200 737 225 725.5 c 128,-1,54
 250 714 250 714 274 689 c 256,55,56
 299 664 299 664 311 640 c 128,-1,57
 323 616 323 616 328 597 c 0,58,59
 333 574 333 574 332 554 c 1,40,41
EndSplineSet
EndChar

StartChar: downleft
Encoding: 65551 -1 160
Width: 828
Flags: W
HStem: 0 141<359 594> 547 20G<593 633>
VStem: 131 142<227 462>
LayerCount: 2
Fore
SplineSet
273 604 m 1,0,-1
 273 227 l 1,1,-1
 613 567 l 1,2,-1
 699 481 l 1,3,-1
 359 141 l 1,4,-1
 736 141 l 1,5,-1
 594 0 l 1,6,-1
 131 0 l 1,7,-1
 131 462 l 1,8,-1
 273 604 l 1,0,-1
EndSplineSet
EndChar

StartChar: right
Encoding: 65552 -1 161
Width: 897
Flags: W
HStem: 305 122<70 550>
LayerCount: 2
Fore
SplineSet
485 693 m 1,0,-1
 812 367 l 1,1,-1
 485 39 l 1,2,-1
 284 39 l 1,3,-1
 550 305 l 1,4,-1
 70 305 l 1,5,-1
 70 427 l 1,6,-1
 550 427 l 1,7,-1
 284 693 l 1,8,-1
 485 693 l 1,0,-1
EndSplineSet
EndChar

StartChar: left
Encoding: 65553 -1 162
Width: 898
Flags: W
HStem: 305 122<347 827>
LayerCount: 2
Fore
SplineSet
613 693 m 1,0,-1
 347 427 l 1,1,-1
 827 427 l 1,2,-1
 827 305 l 1,3,-1
 347 305 l 1,4,-1
 613 39 l 1,5,-1
 412 39 l 1,6,-1
 85 367 l 1,7,-1
 412 693 l 1,8,-1
 613 693 l 1,0,-1
EndSplineSet
EndChar

StartChar: down
Encoding: 65555 -1 164
Width: 820
Flags: W
HStem: 717 20G<349 471>
VStem: 349 122<257 737>
LayerCount: 2
Fore
SplineSet
737 322 m 1,0,-1
 411 -5 l 1,1,-1
 83 322 l 1,2,-1
 83 523 l 1,3,-1
 349 257 l 1,4,-1
 349 737 l 1,5,-1
 471 737 l 1,6,-1
 471 257 l 1,7,-1
 737 523 l 1,8,-1
 737 322 l 1,0,-1
EndSplineSet
EndChar

StartChar: at
Encoding: 64 64 165
Width: 1040
Flags: W
HStem: 60 87<726.604 839.401> 78 74<457.247 570.684> 453 72<457.345 567.558> 701 98<405.399 678.18>
VStem: 74 97<164.063 457.526> 311 100<205.024 400.452> 616 91<204.096 397.812 505.101 521> 887 97<203.457 479.431>
LayerCount: 2
Fore
SplineSet
552 799 m 256,0,1
 658 799 658 799 739 760.5 c 128,-1,2
 820 722 820 722 874.5 658 c 128,-1,3
 929 594 929 594 956.5 511 c 128,-1,4
 984 428 984 428 984 338 c 0,5,6
 984 275 984 275 968.5 223.5 c 128,-1,7
 953 172 953 172 924.5 136 c 128,-1,8
 896 100 896 100 855 80 c 128,-1,9
 814 60 814 60 763 60 c 0,10,11
 746 60 746 60 724 65.5 c 128,-1,12
 702 71 702 71 682 80.5 c 128,-1,13
 662 90 662 90 644.5 103.5 c 128,-1,14
 627 117 627 117 620 134 c 1,15,-1
 610 134 l 1,16,17
 608 124 608 124 597 113.5 c 128,-1,18
 586 103 586 103 568.5 95.5 c 128,-1,19
 551 88 551 88 529 83 c 128,-1,20
 507 78 507 78 483 78 c 0,21,22
 440 78 440 78 408 97 c 128,-1,23
 376 116 376 116 354.5 147.5 c 128,-1,24
 333 179 333 179 322 220.5 c 128,-1,25
 311 262 311 262 311 307 c 0,26,27
 311 367 311 367 328 409.5 c 128,-1,28
 345 452 345 452 371 477.5 c 128,-1,29
 397 503 397 503 429.5 514 c 128,-1,30
 462 525 462 525 494 525 c 0,31,32
 532 525 532 525 563.5 512 c 128,-1,33
 595 499 595 499 610 477 c 1,34,-1
 621 521 l 1,35,-1
 706 521 l 1,36,-1
 707 230 l 2,37,38
 707 205 707 205 714 189.5 c 128,-1,39
 721 174 721 174 731 164.5 c 128,-1,40
 741 155 741 155 753.5 151 c 128,-1,41
 766 147 766 147 776 147 c 0,42,43
 832 147 832 147 859.5 193 c 128,-1,44
 887 239 887 239 887 338 c 0,45,46
 887 419 887 419 862.5 485.5 c 128,-1,47
 838 552 838 552 794 600 c 128,-1,48
 750 648 750 648 688.5 674.5 c 128,-1,49
 627 701 627 701 552 701 c 0,50,51
 454 701 454 701 381.5 670 c 128,-1,52
 309 639 309 639 262.5 585 c 128,-1,53
 216 531 216 531 193.5 458 c 128,-1,54
 171 385 171 385 171 301 c 0,55,56
 171 231 171 231 190.5 171.5 c 128,-1,57
 210 112 210 112 236.5 65.5 c 128,-1,58
 263 19 263 19 291 -11 c 128,-1,59
 319 -41 319 -41 337 -53 c 1,60,-1
 281 -120 l 1,61,62
 250 -94 250 -94 213.5 -52 c 128,-1,63
 177 -10 177 -10 146 44.5 c 128,-1,64
 115 99 115 99 94.5 164 c 128,-1,65
 74 229 74 229 74 301 c 0,66,67
 74 422 74 422 108.5 514.5 c 128,-1,68
 143 607 143 607 206.5 670 c 128,-1,69
 270 733 270 733 358 766 c 128,-1,70
 446 799 446 799 552 799 c 256,0,1
513 152 m 0,71,72
 538 152 538 152 556.5 163.5 c 128,-1,73
 575 175 575 175 588.5 195.5 c 128,-1,74
 602 216 602 216 609 243 c 128,-1,75
 616 270 616 270 616 301 c 0,76,77
 616 333 616 333 608.5 360.5 c 128,-1,78
 601 388 601 388 587 408.5 c 128,-1,79
 573 429 573 429 554.5 441 c 128,-1,80
 536 453 536 453 512 453 c 256,81,82
 488 453 488 453 469.5 440.5 c 128,-1,83
 451 428 451 428 437.5 407.5 c 128,-1,84
 424 387 424 387 417.5 359 c 128,-1,85
 411 331 411 331 411 300 c 256,86,87
 411 269 411 269 418.5 242 c 128,-1,88
 426 215 426 215 439.5 195 c 128,-1,89
 453 175 453 175 471.5 163.5 c 128,-1,90
 490 152 490 152 513 152 c 0,71,72
EndSplineSet
EndChar

StartChar: yen
Encoding: 165 165 166
Width: 664
Flags: W
HStem: 0 21G<266 388> 202 82<102 266 388 562> 345 82<102 203 452 562> 717 20G<58 203.697 461.697 607>
VStem: 266 122<0 202 284 290>
LayerCount: 2
Fore
SplineSet
607 737 m 1,0,-1
 452 427 l 1,1,-1
 562 427 l 1,2,-1
 562 345 l 1,3,-1
 411 345 l 1,4,-1
 388 290 l 1,5,-1
 388 284 l 1,6,-1
 562 284 l 1,7,-1
 562 202 l 1,8,-1
 388 202 l 1,9,-1
 388 0 l 1,10,-1
 266 0 l 1,11,-1
 266 202 l 1,12,-1
 102 202 l 1,13,-1
 102 284 l 1,14,-1
 266 284 l 1,15,-1
 266 290 l 1,16,-1
 241 345 l 1,17,-1
 102 345 l 1,18,-1
 102 427 l 1,19,-1
 203 427 l 1,20,-1
 58 737 l 1,21,-1
 196 737 l 1,22,-1
 323 407 l 1,23,-1
 333 407 l 1,24,-1
 470 737 l 1,25,-1
 607 737 l 1,0,-1
EndSplineSet
EndChar

StartChar: semicolon
Encoding: 59 59 167
Width: 274
Flags: W
HStem: 426 143<87.6582 187.342>
VStem: 66 143<17.6584 117.342 447.658 547.857>
LayerCount: 2
Fore
SplineSet
137 139 m 256,0,1
 107 139 107 139 86.5 118 c 128,-1,2
 66 97 66 97 66 68 c 256,3,4
 66 38 66 38 87 17 c 128,-1,5
 108 -4 108 -4 137 -4 c 1,6,7
 131 -22 131 -22 122 -42 c 0,8,9
 114 -59 114 -59 101 -79.5 c 128,-1,10
 88 -100 88 -100 68 -120 c 1,11,-1
 115 -120 l 1,12,13
 152 -89 152 -89 171 -58 c 128,-1,14
 190 -27 190 -27 198.5 -0.5 c 128,-1,15
 207 26 207 26 208 44 c 128,-1,16
 209 62 209 62 209 68 c 0,17,18
 209 98 209 98 188 118.5 c 128,-1,19
 167 139 167 139 137 139 c 256,0,1
209 498 m 256,20,21
 209 468 209 468 188 447 c 128,-1,22
 167 426 167 426 137 426 c 256,23,24
 107 426 107 426 86.5 447 c 128,-1,25
 66 468 66 468 66 498 c 256,26,27
 66 528 66 528 87 548.5 c 128,-1,28
 108 569 108 569 137 569 c 256,29,30
 167 569 167 569 188 548.5 c 128,-1,31
 209 528 209 528 209 498 c 256,20,21
EndSplineSet
EndChar

StartChar: colon
Encoding: 58 58 168
Width: 294
Flags: W
HStem: -5 143<98.6582 198.342> 426 143<98.6582 198.342>
VStem: 77 143<16.6584 116.857 447.658 547.857>
LayerCount: 2
Fore
SplineSet
220 498 m 256,0,1
 220 468 220 468 199 447 c 128,-1,2
 178 426 178 426 148 426 c 256,3,4
 118 426 118 426 97.5 447 c 128,-1,5
 77 468 77 468 77 498 c 256,6,7
 77 528 77 528 98 548.5 c 128,-1,8
 119 569 119 569 148 569 c 256,9,10
 178 569 178 569 199 548.5 c 128,-1,11
 220 528 220 528 220 498 c 256,0,1
220 67 m 256,12,13
 220 37 220 37 199 16 c 128,-1,14
 178 -5 178 -5 148 -5 c 256,15,16
 118 -5 118 -5 97.5 16 c 128,-1,17
 77 37 77 37 77 67 c 256,18,19
 77 97 77 97 98 117.5 c 128,-1,20
 119 138 119 138 148 138 c 256,21,22
 178 138 178 138 199 117.5 c 128,-1,23
 220 97 220 97 220 67 c 256,12,13
EndSplineSet
EndChar

StartChar: quoteright
Encoding: 8217 8217 169
Width: 275
Flags: W
HStem: 483 259
VStem: 71 143<620.658 720.342>
LayerCount: 2
Fore
SplineSet
142 742 m 256,0,1
 172 742 172 742 193 721 c 128,-1,2
 214 700 214 700 214 671 c 0,3,4
 214 666 214 666 213 647.5 c 128,-1,5
 212 629 212 629 204 603 c 128,-1,6
 196 577 196 577 176.5 545.5 c 128,-1,7
 157 514 157 514 120 483 c 1,8,-1
 73 483 l 1,9,10
 93 502 93 502 106 523 c 128,-1,11
 119 544 119 544 127 561 c 0,12,13
 136 580 136 580 142 599 c 1,14,15
 112 599 112 599 91.5 620 c 128,-1,16
 71 641 71 641 71 671 c 256,17,18
 71 701 71 701 91.5 721.5 c 128,-1,19
 112 742 112 742 142 742 c 256,0,1
EndSplineSet
EndChar

StartChar: quoteleft
Encoding: 8216 8216 170
Width: 276
Flags: W
HStem: 483 259
VStem: 62 144<504.658 605.342>
LayerCount: 2
Fore
SplineSet
134 483 m 256,0,1
 104 483 104 483 83 504 c 128,-1,2
 62 525 62 525 62 555 c 0,3,4
 62 560 62 560 63.5 578.5 c 128,-1,5
 65 597 65 597 73 623 c 128,-1,6
 81 649 81 649 100.5 680.5 c 128,-1,7
 120 712 120 712 157 742 c 1,8,-1
 204 742 l 1,9,10
 184 722 184 722 170.5 702 c 128,-1,11
 157 682 157 682 148 665 c 0,12,13
 138 646 138 646 134 627 c 1,14,15
 164 627 164 627 185 606 c 128,-1,16
 206 585 206 585 206 555 c 256,17,18
 206 525 206 525 185 504 c 128,-1,19
 164 483 164 483 134 483 c 256,0,1
EndSplineSet
EndChar

StartChar: quotedblright
Encoding: 8221 8221 171
Width: 493
Flags: W
HStem: 599 143<100.658 151 294.658 345>
VStem: 79 143<620.658 720.342> 273 144<620.658 720.342>
LayerCount: 2
Fore
SplineSet
151 742 m 256,0,1
 181 742 181 742 201.5 721 c 128,-1,2
 222 700 222 700 222 671 c 0,3,4
 222 666 222 666 221 647.5 c 128,-1,5
 220 629 220 629 212 603 c 128,-1,6
 204 577 204 577 184.5 545.5 c 128,-1,7
 165 514 165 514 128 483 c 1,8,-1
 81 483 l 1,9,10
 101 502 101 502 114 523 c 128,-1,11
 127 544 127 544 135 561 c 0,12,13
 144 580 144 580 151 599 c 1,14,15
 121 599 121 599 100 620 c 128,-1,16
 79 641 79 641 79 671 c 256,17,18
 79 701 79 701 100 721.5 c 128,-1,19
 121 742 121 742 151 742 c 256,0,1
345 742 m 256,20,21
 375 742 375 742 396 721 c 128,-1,22
 417 700 417 700 417 671 c 0,23,24
 417 666 417 666 416 647.5 c 128,-1,25
 415 629 415 629 406.5 603 c 128,-1,26
 398 577 398 577 378.5 545.5 c 128,-1,27
 359 514 359 514 323 483 c 1,28,-1
 275 483 l 1,29,30
 295 502 295 502 308.5 523 c 128,-1,31
 322 544 322 544 330 561 c 0,32,33
 339 580 339 580 345 599 c 1,34,35
 315 599 315 599 294 620 c 128,-1,36
 273 641 273 641 273 671 c 256,37,38
 273 701 273 701 294 721.5 c 128,-1,39
 315 742 315 742 345 742 c 256,20,21
EndSplineSet
EndChar

StartChar: quotedblleft
Encoding: 8220 8220 172
Width: 494
Flags: W
HStem: 483 144<150 199.857 344 394.342> 722 20G<153.5 219 348.5 414>
VStem: 78 143<504.658 605.342> 272 144<504.658 605.342>
LayerCount: 2
Fore
SplineSet
344 483 m 256,0,1
 314 483 314 483 293 504 c 128,-1,2
 272 525 272 525 272 555 c 0,3,4
 272 560 272 560 273 578.5 c 128,-1,5
 274 597 274 597 282.5 623 c 128,-1,6
 291 649 291 649 310.5 680.5 c 128,-1,7
 330 712 330 712 367 742 c 1,8,-1
 414 742 l 1,9,10
 394 722 394 722 380.5 702 c 128,-1,11
 367 682 367 682 358 665 c 0,12,13
 348 646 348 646 344 627 c 1,14,15
 374 627 374 627 395 606 c 128,-1,16
 416 585 416 585 416 555 c 256,17,18
 416 525 416 525 395 504 c 128,-1,19
 374 483 374 483 344 483 c 256,0,1
150 483 m 256,20,21
 120 483 120 483 99 504 c 128,-1,22
 78 525 78 525 78 555 c 0,23,24
 78 560 78 560 79 578.5 c 128,-1,25
 80 597 80 597 88 623 c 128,-1,26
 96 649 96 649 115.5 680.5 c 128,-1,27
 135 712 135 712 172 742 c 1,28,-1
 219 742 l 1,29,30
 199 722 199 722 185.5 702 c 128,-1,31
 172 682 172 682 164 665 c 0,32,33
 154 646 154 646 150 627 c 1,34,35
 180 627 180 627 200.5 606 c 128,-1,36
 221 585 221 585 221 555 c 256,37,38
 221 525 221 525 200.5 504 c 128,-1,39
 180 483 180 483 150 483 c 256,20,21
EndSplineSet
EndChar

StartChar: upleft
Encoding: 65562 -1 179
Width: 827
Flags: W
HStem: 0 21G<253 273> 463 141<359 594>
VStem: 131 142<142 377>
LayerCount: 2
Fore
SplineSet
131 142 m 1,0,-1
 131 604 l 1,1,-1
 594 604 l 1,2,-1
 736 463 l 1,3,-1
 359 463 l 1,4,-1
 699 123 l 1,5,-1
 613 37 l 1,6,-1
 273 377 l 1,7,-1
 273 0 l 1,8,-1
 131 142 l 1,0,-1
EndSplineSet
EndChar

StartChar: upright
Encoding: 65563 -1 180
Width: 826
Flags: W
HStem: 0 21G<554 574> 463 141<233 468>
VStem: 554 142<142 377>
LayerCount: 2
Fore
SplineSet
554 0 m 1,0,-1
 554 377 l 1,1,-1
 214 37 l 1,2,-1
 128 123 l 1,3,-1
 468 463 l 1,4,-1
 91 463 l 1,5,-1
 233 604 l 1,6,-1
 696 604 l 1,7,-1
 696 142 l 1,8,-1
 554 0 l 1,0,-1
EndSplineSet
EndChar

StartChar: germandbls
Encoding: 223 223 185
Width: 655
Flags: W
HStem: -5 86<283.565 438.649> 341 81<295 407.73> 688 94<262.322 399.87>
VStem: 81 122<0 612.57> 443 112<467.152 644.073> 467 115<111.993 295.54>
LayerCount: 2
Fore
SplineSet
460 388 m 1,0,1
 483 385 483 385 504.5 373 c 128,-1,2
 526 361 526 361 543 339 c 128,-1,3
 560 317 560 317 571 285.5 c 128,-1,4
 582 254 582 254 582 213 c 0,5,6
 582 163 582 163 572 126.5 c 128,-1,7
 562 90 562 90 546.5 66 c 128,-1,8
 531 42 531 42 512 27.5 c 128,-1,9
 493 13 493 13 474 6 c 128,-1,10
 455 -1 455 -1 437.5 -3 c 128,-1,11
 420 -5 420 -5 409 -5 c 0,12,13
 367 -5 367 -5 340 -1.5 c 128,-1,14
 313 2 313 2 296.5 7 c 128,-1,15
 280 12 280 12 269.5 18.5 c 128,-1,16
 259 25 259 25 250 30 c 1,17,-1
 278 106 l 1,18,19
 295 98 295 98 319 89.5 c 128,-1,20
 343 81 343 81 391 81 c 0,21,22
 430 81 430 81 448.5 118.5 c 128,-1,23
 467 156 467 156 467 213 c 0,24,25
 467 240 467 240 459.5 263.5 c 128,-1,26
 452 287 452 287 438.5 304.5 c 128,-1,27
 425 322 425 322 406 331.5 c 128,-1,28
 387 341 387 341 366 341 c 2,29,-1
 295 341 l 1,30,-1
 295 422 l 1,31,-1
 351 422 l 2,32,33
 367 422 367 422 382.5 427.5 c 128,-1,34
 398 433 398 433 410.5 447.5 c 128,-1,35
 423 462 423 462 431.5 486 c 128,-1,36
 440 510 440 510 443 548 c 1,37,38
 443 624 443 624 411 656 c 128,-1,39
 379 688 379 688 330 688 c 0,40,41
 288 688 288 688 263.5 669 c 128,-1,42
 239 650 239 650 225 612.5 c 128,-1,43
 211 575 211 575 207 518 c 128,-1,44
 203 461 203 461 203 384 c 2,45,-1
 203 0 l 1,46,-1
 81 0 l 1,47,-1
 81 396 l 2,48,49
 81 489 81 489 92 561.5 c 128,-1,50
 103 634 103 634 131 683 c 128,-1,51
 159 732 159 732 206.5 757 c 128,-1,52
 254 782 254 782 327 782 c 0,53,54
 377 782 377 782 419 767.5 c 128,-1,55
 461 753 461 753 491 723.5 c 128,-1,56
 521 694 521 694 538 650 c 128,-1,57
 555 606 555 606 555 548 c 1,58,59
 552 521 552 521 543 494 c 128,-1,60
 534 467 534 467 521.5 445 c 128,-1,61
 509 423 509 423 493 407.5 c 128,-1,62
 477 392 477 392 460 388 c 1,0,1
EndSplineSet
EndChar

StartChar: thorn
Encoding: 254 254 186
Width: 625
Flags: W
HStem: -5 94<266.212 395.169> 476 93<269.583 397.803> 757 20G<86 208>
VStem: 86 122<-222 67 507 777> 86 114<169.445 395.543> 464 127<171.383 393.367>
LayerCount: 2
Fore
SplineSet
579 393 m 0,0,1
 591 347 591 347 591 290 c 256,2,3
 591 233 591 233 577.5 179.5 c 128,-1,4
 564 126 564 126 536.5 85 c 128,-1,5
 509 44 509 44 467.5 19.5 c 128,-1,6
 426 -5 426 -5 370 -5 c 0,7,8
 340 -5 340 -5 312 1 c 128,-1,9
 284 7 284 7 262 17.5 c 128,-1,10
 240 28 240 28 225.5 40.5 c 128,-1,11
 211 53 211 53 208 67 c 1,12,-1
 208 -222 l 1,13,-1
 86 -222 l 1,14,-1
 86 777 l 1,15,-1
 208 777 l 1,16,-1
 208 507 l 1,17,18
 228 535 228 535 268.5 552 c 128,-1,19
 309 569 309 569 358 569 c 0,20,21
 391 569 391 569 425 560 c 128,-1,22
 459 551 459 551 488.5 530 c 128,-1,23
 518 509 518 509 542 475 c 128,-1,24
 566 441 566 441 579 393 c 0,0,1
330 89 m 0,25,26
 360 89 360 89 384.5 104 c 128,-1,27
 409 119 409 119 426.5 144.5 c 128,-1,28
 444 170 444 170 454 205.5 c 128,-1,29
 464 241 464 241 464 281 c 0,30,31
 464 320 464 320 455 355 c 128,-1,32
 446 390 446 390 429.5 417 c 128,-1,33
 413 444 413 444 389.5 460 c 128,-1,34
 366 476 366 476 335 476 c 0,35,36
 305 476 305 476 280 461 c 128,-1,37
 255 446 255 446 237 420.5 c 128,-1,38
 219 395 219 395 209.5 360.5 c 128,-1,39
 200 326 200 326 200 286 c 256,40,41
 200 246 200 246 208.5 210.5 c 128,-1,42
 217 175 217 175 234 148 c 128,-1,43
 251 121 251 121 275 105 c 128,-1,44
 299 89 299 89 330 89 c 0,25,26
EndSplineSet
EndChar

StartChar: Thorn
Encoding: 222 222 187
Width: 852
Flags: W
HStem: 0 21G<91 211> 184 88<211 391.811> 564 91<211 388.806> 717 20G<91 211>
VStem: 91 120<0 184 272 564 655 737> 444 116<327.394 509.365>
LayerCount: 2
Fore
SplineSet
211 0 m 1,0,-1
 91 0 l 1,1,-1
 91 737 l 1,2,-1
 211 737 l 1,3,-1
 211 655 l 1,4,-1
 303 655 l 2,5,6
 350 655 350 655 396 640 c 128,-1,7
 442 625 442 625 478.5 595 c 128,-1,8
 515 565 515 565 537.5 522.5 c 128,-1,9
 560 480 560 480 560 427 c 0,10,11
 560 371 560 371 541 326 c 128,-1,12
 522 281 522 281 488 249.5 c 128,-1,13
 454 218 454 218 406 201 c 128,-1,14
 358 184 358 184 300 184 c 2,15,-1
 211 184 l 1,16,-1
 211 0 l 1,0,-1
211 564 m 1,17,-1
 211 272 l 1,18,-1
 321 272 l 2,19,20
 343 272 343 272 364.5 279.5 c 128,-1,21
 386 287 386 287 404 304.5 c 128,-1,22
 422 322 422 322 433 352 c 128,-1,23
 444 382 444 382 444 427 c 0,24,25
 444 445 444 445 439 469 c 128,-1,26
 434 493 434 493 418.5 514.5 c 128,-1,27
 403 536 403 536 375 550 c 128,-1,28
 347 564 347 564 301 564 c 2,29,-1
 211 564 l 1,17,-1
EndSplineSet
EndChar

StartChar: Eth
Encoding: 208 208 188
Width: 770
Flags: W
HStem: 0 88<216 445.434> 318 102<7 96 216 326> 646 91<216 425.461>
VStem: 96 120<88 318 420 646> 565 126<231.296 515.55>
LayerCount: 2
Fore
SplineSet
96 420 m 1,0,-1
 96 737 l 1,1,-1
 318 737 l 2,2,3
 411 737 411 737 481.5 707.5 c 128,-1,4
 552 678 552 678 598.5 629 c 128,-1,5
 645 580 645 580 668 517.5 c 128,-1,6
 691 455 691 455 691 389 c 0,7,8
 691 298 691 298 671.5 233.5 c 128,-1,9
 652 169 652 169 622 125.5 c 128,-1,10
 592 82 592 82 554.5 57 c 128,-1,11
 517 32 517 32 482 19.5 c 128,-1,12
 447 7 447 7 418 3.5 c 128,-1,13
 389 0 389 0 375 0 c 2,14,-1
 96 0 l 1,15,-1
 96 318 l 1,16,-1
 7 318 l 1,17,-1
 7 420 l 1,18,-1
 96 420 l 1,0,-1
335 88 m 2,19,20
 457 88 457 88 511 166 c 128,-1,21
 565 244 565 244 565 392 c 0,22,23
 565 438 565 438 554 483 c 128,-1,24
 543 528 543 528 511.5 564.5 c 128,-1,25
 480 601 480 601 426 623.5 c 128,-1,26
 372 646 372 646 286 646 c 2,27,-1
 216 646 l 1,28,-1
 216 420 l 1,29,-1
 326 420 l 1,30,-1
 326 318 l 1,31,-1
 216 318 l 1,32,-1
 216 88 l 1,33,-1
 335 88 l 2,19,20
EndSplineSet
EndChar

StartChar: eth
Encoding: 240 240 189
Width: 645
Flags: W
HStem: -5 97<242.792 388.539> 411 89<241.205 390.358> 716 62<226 280.995>
VStem: 70 105<164.987 341.562> 459 113<166.578 339.058>
LayerCount: 2
Fore
SplineSet
477 671 m 1,0,1
 520 621 520 621 546 526.5 c 128,-1,2
 572 432 572 432 572 292 c 0,3,4
 572 227 572 227 557 173 c 128,-1,5
 542 119 542 119 510 79 c 128,-1,6
 478 39 478 39 430 17 c 128,-1,7
 382 -5 382 -5 316 -5 c 0,8,9
 280 -5 280 -5 237.5 7.5 c 128,-1,10
 195 20 195 20 157.5 51.5 c 128,-1,11
 120 83 120 83 95 134.5 c 128,-1,12
 70 186 70 186 70 264 c 0,13,14
 70 306 70 306 85.5 348 c 128,-1,15
 101 390 101 390 131 424 c 128,-1,16
 161 458 161 458 203.5 479 c 128,-1,17
 246 500 246 500 298 500 c 256,18,19
 350 500 350 500 391.5 481.5 c 128,-1,20
 433 463 433 463 446 436 c 0,21,22
 447 435 447 435 450 435 c 128,-1,23
 453 435 453 435 454 434 c 1,24,25
 453 479 453 479 442 525.5 c 128,-1,26
 431 572 431 572 409 602 c 1,27,-1
 351 545 l 1,28,-1
 280 616 l 1,29,-1
 327 665 l 1,30,31
 322 671 322 671 310.5 678 c 128,-1,32
 299 685 299 685 284.5 692 c 128,-1,33
 270 699 270 699 255 705.5 c 128,-1,34
 240 712 240 712 226 716 c 1,35,-1
 226 778 l 1,36,37
 254 778 254 778 281 773.5 c 128,-1,38
 308 769 308 769 331 762 c 128,-1,39
 354 755 354 755 371 747 c 128,-1,40
 388 739 388 739 396 733 c 1,41,-1
 463 799 l 1,42,-1
 535 727 l 1,43,-1
 477 671 l 1,0,1
315 92 m 0,44,45
 346 92 346 92 372 104.5 c 128,-1,46
 398 117 398 117 417 138.5 c 128,-1,47
 436 160 436 160 447.5 189.5 c 128,-1,48
 459 219 459 219 459 254 c 256,49,50
 459 289 459 289 447.5 317.5 c 128,-1,51
 436 346 436 346 417 366.5 c 128,-1,52
 398 387 398 387 372 399 c 128,-1,53
 346 411 346 411 315 411 c 0,54,55
 285 411 285 411 259.5 399 c 128,-1,56
 234 387 234 387 215.5 366.5 c 128,-1,57
 197 346 197 346 186 317.5 c 128,-1,58
 175 289 175 289 175 254 c 256,59,60
 175 219 175 219 186 189.5 c 128,-1,61
 197 160 197 160 215.5 138.5 c 128,-1,62
 234 117 234 117 259.5 104.5 c 128,-1,63
 285 92 285 92 315 92 c 0,44,45
EndSplineSet
EndChar

StartChar: Euro
Encoding: 8364 8364 190
Width: 678
Flags: W
HStem: -5 98<358.35 522.318> 250 82<85 134 269 433> 414 82<85 134 269 495> 650 99<358.765 524.161>
VStem: 133 122<332 414>
LayerCount: 2
Fore
SplineSet
443 650 m 0,0,1
 386 650 386 650 339 615 c 128,-1,2
 292 580 292 580 269 496 c 1,3,-1
 525 496 l 1,4,-1
 495 414 l 1,5,-1
 257 414 l 1,6,7
 256 404 256 404 255.5 393.5 c 128,-1,8
 255 383 255 383 255 372 c 256,9,10
 255 361 255 361 255.5 351 c 128,-1,11
 256 341 256 341 257 332 c 1,12,-1
 464 332 l 1,13,-1
 433 250 l 1,14,-1
 269 250 l 1,15,16
 291 167 291 167 336.5 130 c 128,-1,17
 382 93 382 93 437 93 c 0,18,19
 473 93 473 93 505 106 c 128,-1,20
 537 119 537 119 562 148 c 1,21,-1
 562 18 l 1,22,23
 506 -6 506 -6 440 -5 c 0,24,25
 386 -5 386 -5 338.5 11 c 128,-1,26
 291 27 291 27 252.5 59 c 128,-1,27
 214 91 214 91 186.5 138.5 c 128,-1,28
 159 186 159 186 145 250 c 1,29,-1
 54 250 l 1,30,-1
 85 332 l 1,31,-1
 134 332 l 1,32,33
 133 342 133 342 133 351.5 c 128,-1,34
 133 361 133 361 133 372 c 128,-1,35
 133 383 133 383 133 393 c 128,-1,36
 133 403 133 403 134 414 c 1,37,-1
 54 414 l 1,38,-1
 85 496 l 1,39,-1
 145 496 l 1,40,41
 159 558 159 558 187 605.5 c 128,-1,42
 215 653 215 653 253.5 685 c 128,-1,43
 292 717 292 717 339.5 733 c 128,-1,44
 387 749 387 749 440 749 c 0,45,46
 532 749 532 749 603 702 c 1,47,-1
 562 595 l 1,48,49
 537 624 537 624 506.5 637 c 128,-1,50
 476 650 476 650 443 650 c 0,0,1
EndSplineSet
EndChar

StartChar: sterling
Encoding: 163 163 191
Width: 526
Flags: W
HStem: 0 82<61 135 257 437> 400 82<61 135 259 367> 654 88<285.988 433.559>
VStem: 135 122<82 400 482 629.803>
LayerCount: 2
Fore
SplineSet
61 82 m 1,0,-1
 135 82 l 1,1,-1
 135 400 l 1,2,-1
 61 400 l 1,3,-1
 61 482 l 1,4,-1
 137 482 l 1,5,6
 137 516 137 516 140.5 559 c 128,-1,7
 144 602 144 602 161.5 641 c 128,-1,8
 179 680 179 680 215 708.5 c 128,-1,9
 251 737 251 737 315 742 c 0,10,11
 376 747 376 747 416.5 736 c 128,-1,12
 457 725 457 725 474 714 c 1,13,-1
 434 638 l 1,14,15
 420 646 420 646 390.5 650 c 128,-1,16
 361 654 361 654 333 654 c 0,17,18
 301 654 301 654 285.5 637.5 c 128,-1,19
 270 621 270 621 264.5 594.5 c 128,-1,20
 259 568 259 568 259 538 c 128,-1,21
 259 508 259 508 259 482 c 1,22,-1
 367 482 l 1,23,-1
 367 400 l 1,24,-1
 257 400 l 1,25,-1
 257 82 l 1,26,-1
 437 82 l 1,27,-1
 437 0 l 1,28,-1
 61 0 l 1,29,-1
 61 82 l 1,0,-1
EndSplineSet
EndChar

StartChar: cent
Encoding: 162 162 192
Width: 585
Flags: W
HStem: -82 176<283.14 363.6> 471 176<283.328 363.756>
VStem: 70 128<170.686 393.63> 283 81<-82 0.350708 561.934 647>
LayerCount: 2
Fore
SplineSet
327 94 m 0,0,1
 372 94 372 94 402.5 108.5 c 128,-1,2
 433 123 433 123 459 144 c 1,3,-1
 504 79 l 1,4,5
 475 43 475 43 442.5 22.5 c 128,-1,6
 410 2 410 2 364 -3 c 1,7,-1
 364 -82 l 1,8,-1
 283 -82 l 1,9,-1
 283 -1 l 1,10,11
 234 7 234 7 194.5 31.5 c 128,-1,12
 155 56 155 56 127 94 c 128,-1,13
 99 132 99 132 84.5 179.5 c 128,-1,14
 70 227 70 227 70 282 c 256,15,16
 70 336 70 336 85 383.5 c 128,-1,17
 100 431 100 431 128 468 c 128,-1,18
 156 505 156 505 195 530 c 128,-1,19
 234 555 234 555 283 563 c 1,20,-1
 283 647 l 1,21,-1
 364 647 l 1,22,-1
 364 565 l 1,23,24
 413 560 413 560 449 539.5 c 128,-1,25
 485 519 485 519 515 483 c 1,26,-1
 461 418 l 1,27,28
 444 438 444 438 414 454.5 c 128,-1,29
 384 471 384 471 332 471 c 0,30,31
 302 471 302 471 277 457 c 128,-1,32
 252 443 252 443 234.5 418 c 128,-1,33
 217 393 217 393 207.5 359 c 128,-1,34
 198 325 198 325 198 285 c 256,35,36
 198 245 198 245 206.5 210.5 c 128,-1,37
 215 176 215 176 232 150 c 128,-1,38
 249 124 249 124 272.5 109 c 128,-1,39
 296 94 296 94 327 94 c 0,0,1
EndSplineSet
EndChar

StartChar: endash
Encoding: 8211 8211 193
Width: 638
Flags: W
HStem: 242 101<86 553>
LayerCount: 2
Fore
SplineSet
553 343 m 1,0,-1
 553 242 l 1,1,-1
 86 242 l 1,2,-1
 86 343 l 1,3,-1
 553 343 l 1,0,-1
EndSplineSet
EndChar

StartChar: emdash
Encoding: 8212 8212 194
Width: 917
Flags: W
HStem: 242 101<86 831>
LayerCount: 2
Fore
SplineSet
831 343 m 1,0,-1
 831 242 l 1,1,-1
 86 242 l 1,2,-1
 86 343 l 1,3,-1
 831 343 l 1,0,-1
EndSplineSet
EndChar

StartChar: equal
Encoding: 61 61 195
Width: 638
Flags: W
HStem: 140 102<86 553> 343 101<86 553>
LayerCount: 2
Fore
SplineSet
553 444 m 1,0,-1
 553 343 l 1,1,-1
 86 343 l 1,2,-1
 86 444 l 1,3,-1
 553 444 l 1,0,-1
553 242 m 1,4,-1
 553 140 l 1,5,-1
 86 140 l 1,6,-1
 86 242 l 1,7,-1
 553 242 l 1,4,-1
EndSplineSet
EndChar

StartChar: breve
Encoding: 728 728 196
Width: 386
Flags: W
HStem: 635 60<146.8 240.561>
VStem: 69 60<714.596 760> 258 59<714.596 760>
LayerCount: 2
Fore
SplineSet
194 695 m 256,0,1
 221 695 221 695 239.5 714 c 128,-1,2
 258 733 258 733 258 760 c 1,3,-1
 317 760 l 1,4,5
 317 734 317 734 307.5 711 c 128,-1,6
 298 688 298 688 281 671 c 128,-1,7
 264 654 264 654 241.5 644.5 c 128,-1,8
 219 635 219 635 194 635 c 256,9,10
 168 635 168 635 145 644.5 c 128,-1,11
 122 654 122 654 105 671 c 128,-1,12
 88 688 88 688 78.5 711 c 128,-1,13
 69 734 69 734 69 760 c 1,14,-1
 129 760 l 1,15,16
 129 733 129 733 148 714 c 128,-1,17
 167 695 167 695 194 695 c 256,0,1
EndSplineSet
EndChar

StartChar: divide
Encoding: 247 247 197
Width: 551
Flags: W
HStem: -5 143<222.658 322.342> 426 143<222.658 322.342>
VStem: 201 143<16.6584 116.857 447.658 547.857>
LayerCount: 2
Fore
SplineSet
44 343 m 1,0,-1
 44 242 l 1,1,-1
 511 242 l 1,2,-1
 511 343 l 1,3,-1
 44 343 l 1,0,-1
344 498 m 256,4,5
 344 468 344 468 323 447 c 128,-1,6
 302 426 302 426 272 426 c 256,7,8
 242 426 242 426 221.5 447 c 128,-1,9
 201 468 201 468 201 498 c 256,10,11
 201 528 201 528 222 548.5 c 128,-1,12
 243 569 243 569 272 569 c 256,13,14
 302 569 302 569 323 548.5 c 128,-1,15
 344 528 344 528 344 498 c 256,4,5
344 67 m 256,16,17
 344 37 344 37 323 16 c 128,-1,18
 302 -5 302 -5 272 -5 c 256,19,20
 242 -5 242 -5 221.5 16 c 128,-1,21
 201 37 201 37 201 67 c 256,22,23
 201 97 201 97 222 117.5 c 128,-1,24
 243 138 243 138 272 138 c 256,25,26
 302 138 302 138 323 117.5 c 128,-1,27
 344 97 344 97 344 67 c 256,16,17
EndSplineSet
EndChar

StartChar: Lslash
Encoding: 321 321 198
Width: 664
Flags: W
HStem: 0 91<287 626> 717 20G<165 287>
VStem: 165 122<91 737>
LayerCount: 2
Fore
SplineSet
381 514 m 1,0,-1
 453 442 l 1,1,-1
 113 204 l 1,2,-1
 41 275 l 1,3,-1
 381 514 l 1,0,-1
287 737 m 1,4,-1
 287 91 l 1,5,-1
 626 91 l 1,6,-1
 626 0 l 1,7,-1
 165 0 l 1,8,-1
 165 737 l 1,9,-1
 287 737 l 1,4,-1
EndSplineSet
EndChar

StartChar: lslash
Encoding: 322 322 199
Width: 495
Flags: W
HStem: -5 79<272.941 362> 545 20G<345.053 394> 757 20G<126 248>
VStem: 126 122<99.0416 777>
LayerCount: 2
Fore
SplineSet
374 565 m 1,0,-1
 445 494 l 1,1,-1
 116 265 l 1,2,-1
 44 337 l 1,3,-1
 374 565 l 1,0,-1
248 172 m 2,4,5
 248 138 248 138 257 118.5 c 128,-1,6
 266 99 266 99 282 89.5 c 128,-1,7
 298 80 298 80 318.5 77 c 128,-1,8
 339 74 339 74 362 74 c 1,9,-1
 362 0 l 1,10,11
 349 -2 349 -2 336 -3 c 0,12,13
 325 -4 325 -4 310 -4.5 c 128,-1,14
 295 -5 295 -5 280 -5 c 256,15,16
 265 -5 265 -5 249.5 -4 c 128,-1,17
 234 -3 234 -3 223 -1 c 0,18,19
 189 6 189 6 170 29 c 128,-1,20
 151 52 151 52 141 80.5 c 128,-1,21
 131 109 131 109 128.5 136 c 128,-1,22
 126 163 126 163 126 178 c 2,23,-1
 126 190 l 1,24,-1
 126 777 l 1,25,-1
 248 777 l 1,26,-1
 248 172 l 2,4,5
EndSplineSet
EndChar

StartChar: ogonek
Encoding: 731 731 200
Width: 289
Flags: W
HStem: -224 38<137.539 187>
VStem: 55 60<-167.176 -56.7034>
LayerCount: 2
Fore
SplineSet
227 16 m 1,0,1
 223 13 223 13 204.5 1.5 c 128,-1,2
 186 -10 186 -10 166 -27 c 128,-1,3
 146 -44 146 -44 130.5 -65.5 c 128,-1,4
 115 -87 115 -87 115 -111 c 0,5,6
 115 -133 115 -133 122 -147 c 128,-1,7
 129 -161 129 -161 140 -169.5 c 128,-1,8
 151 -178 151 -178 163.5 -182 c 128,-1,9
 176 -186 176 -186 187 -186 c 1,10,-1
 187 -224 l 1,11,12
 155 -224 155 -224 130.5 -215 c 128,-1,13
 106 -206 106 -206 89.5 -190 c 128,-1,14
 73 -174 73 -174 64 -153.5 c 128,-1,15
 55 -133 55 -133 55 -110 c 0,16,17
 55 -79 55 -79 76 -52 c 128,-1,18
 97 -25 97 -25 124 -4 c 0,19,20
 154 20 154 20 193 39 c 1,21,22
 204 35 204 35 214.5 26.5 c 128,-1,23
 225 18 225 18 227 16 c 1,0,1
EndSplineSet
EndChar

StartChar: dotaccent
Encoding: 729 729 201
Width: 285
Flags: W
HStem: 639 143<93.6582 193.342>
VStem: 72 143<660.658 760.857>
LayerCount: 2
Fore
SplineSet
215 711 m 256,0,1
 215 681 215 681 194 660 c 128,-1,2
 173 639 173 639 143 639 c 256,3,4
 113 639 113 639 92.5 660 c 128,-1,5
 72 681 72 681 72 711 c 256,6,7
 72 741 72 741 93 761.5 c 128,-1,8
 114 782 114 782 143 782 c 256,9,10
 173 782 173 782 194 761.5 c 128,-1,11
 215 741 215 741 215 711 c 256,0,1
EndSplineSet
EndChar

StartChar: hungarumlaut
Encoding: 733 733 202
Width: 448
Flags: W
HStem: 635 142<213 226 437 451>
LayerCount: 2
Fore
SplineSet
213 777 m 1,0,-1
 104 635 l 1,1,-1
 24 635 l 1,2,-1
 91 777 l 1,3,-1
 213 777 l 1,0,-1
437 777 m 1,4,-1
 329 635 l 1,5,-1
 248 635 l 1,6,-1
 315 777 l 1,7,-1
 437 777 l 1,4,-1
EndSplineSet
EndChar

StartChar: quotesingle
Encoding: 39 39 203
Width: 250
Flags: W
HStem: 564 173<91 160>
VStem: 91 69<564 641.504>
LayerCount: 2
Fore
SplineSet
160 564 m 1,0,-1
 91 564 l 1,1,-1
 75 737 l 1,2,-1
 176 737 l 1,3,-1
 160 564 l 1,0,-1
EndSplineSet
EndChar

StartChar: quotedbl
Encoding: 34 34 204
Width: 449
Flags: W
HStem: 564 173<98 167 283 351>
VStem: 98 69<564 641.504> 283 68<564 636.945>
LayerCount: 2
Fore
SplineSet
167 564 m 1,0,-1
 98 564 l 1,1,-1
 82 737 l 1,2,-1
 183 737 l 1,3,-1
 167 564 l 1,0,-1
351 564 m 1,4,-1
 283 564 l 1,5,-1
 266 737 l 1,6,-1
 368 737 l 1,7,-1
 351 564 l 1,4,-1
EndSplineSet
EndChar

StartChar: currency
Encoding: 164 164 205
Width: 677
Flags: W
HStem: 150 64<280.392 395.341> 537 63<281.696 397.524>
VStem: 135 93<276.109 474.616> 450 94<276.595 474.658>
LayerCount: 2
Fore
SplineSet
544 374 m 0,0,1
 544 303 544 303 512 249 c 1,2,-1
 600 175 l 1,3,-1
 528 103 l 1,4,-1
 459 187 l 1,5,6
 434 170 434 170 404 160 c 128,-1,7
 374 150 374 150 339 150 c 0,8,9
 268 150 268 150 219 187 c 1,10,-1
 150 103 l 1,11,-1
 78 175 l 1,12,-1
 166 248 l 1,13,14
 151 275 151 275 143 307 c 128,-1,15
 135 339 135 339 135 375 c 0,16,17
 135 446 135 446 167 501 c 1,18,-1
 78 573 l 1,19,-1
 150 645 l 1,20,-1
 220 560 l 1,21,22
 271 600 271 600 343 600 c 1,23,24
 411 599 411 599 460 562 c 1,25,-1
 528 645 l 1,26,-1
 600 573 l 1,27,-1
 512 501 l 1,28,29
 544 446 544 446 544 374 c 0,0,1
337 214 m 0,30,31
 362 214 362 214 382 226.5 c 128,-1,32
 402 239 402 239 417.5 260 c 128,-1,33
 433 281 433 281 441.5 310 c 128,-1,34
 450 339 450 339 450 373 c 256,35,36
 450 407 450 407 442 436.5 c 128,-1,37
 434 466 434 466 420.5 488 c 128,-1,38
 407 510 407 510 386.5 523.5 c 128,-1,39
 366 537 366 537 341 537 c 256,40,41
 316 537 316 537 295 524.5 c 128,-1,42
 274 512 274 512 259.5 490.5 c 128,-1,43
 245 469 245 469 236.5 440.5 c 128,-1,44
 228 412 228 412 228 378 c 256,45,46
 228 344 228 344 236 314.5 c 128,-1,47
 244 285 244 285 257.5 263 c 128,-1,48
 271 241 271 241 291 227.5 c 128,-1,49
 311 214 311 214 337 214 c 0,30,31
EndSplineSet
EndChar

StartChar: less
Encoding: 60 60 206
Width: 645
Flags: W
LayerCount: 2
Fore
SplineSet
561 84 m 1,0,-1
 561 -6 l 1,1,-1
 29 254 l 1,2,-1
 29 322 l 1,3,-1
 561 579 l 1,4,-1
 561 489 l 1,5,-1
 123 288 l 1,6,-1
 561 84 l 1,0,-1
EndSplineSet
EndChar

StartChar: greater
Encoding: 62 62 207
Width: 647
Flags: W
LayerCount: 2
Fore
SplineSet
86 84 m 1,0,-1
 524 288 l 1,1,-1
 86 489 l 1,2,-1
 86 579 l 1,3,-1
 618 322 l 1,4,-1
 618 254 l 1,5,-1
 86 -6 l 1,6,-1
 86 84 l 1,0,-1
EndSplineSet
EndChar

StartChar: guilsinglleft
Encoding: 8249 8249 208
Width: 457
Flags: W
LayerCount: 2
Fore
SplineSet
180 283 m 1,0,-1
 385 31 l 1,1,-1
 246 31 l 1,2,-1
 44 283 l 1,3,-1
 249 534 l 1,4,-1
 386 534 l 1,5,-1
 180 283 l 1,0,-1
EndSplineSet
EndChar

StartChar: guilsinglright
Encoding: 8250 8250 209
Width: 457
Flags: W
LayerCount: 2
Fore
SplineSet
72 534 m 1,0,-1
 209 534 l 1,1,-1
 414 283 l 1,2,-1
 212 31 l 1,3,-1
 73 31 l 1,4,-1
 278 283 l 1,5,-1
 72 534 l 1,0,-1
EndSplineSet
EndChar

StartChar: guillemotleft
Encoding: 171 171 210
Width: 736
Flags: W
LayerCount: 2
Fore
SplineSet
197 283 m 1,0,-1
 401 31 l 1,1,-1
 262 31 l 1,2,-1
 60 283 l 1,3,-1
 265 534 l 1,4,-1
 402 534 l 1,5,-1
 197 283 l 1,0,-1
453 283 m 1,6,-1
 657 31 l 1,7,-1
 518 31 l 1,8,-1
 316 283 l 1,9,-1
 521 534 l 1,10,-1
 658 534 l 1,11,-1
 453 283 l 1,6,-1
EndSplineSet
EndChar

StartChar: guillemotright
Encoding: 187 187 211
Width: 736
Flags: W
LayerCount: 2
Fore
SplineSet
334 534 m 1,0,-1
 471 534 l 1,1,-1
 676 283 l 1,2,-1
 474 31 l 1,3,-1
 335 31 l 1,4,-1
 540 283 l 1,5,-1
 334 534 l 1,0,-1
78 534 m 1,6,-1
 215 534 l 1,7,-1
 420 283 l 1,8,-1
 218 31 l 1,9,-1
 79 31 l 1,10,-1
 284 283 l 1,11,-1
 78 534 l 1,6,-1
EndSplineSet
EndChar

StartChar: asterisk
Encoding: 42 42 212
Width: 467
Flags: W
HStem: 721 20G<153 229.438>
LayerCount: 2
Fore
SplineSet
392 481 m 1,0,-1
 270 527 l 1,1,-1
 315 404 l 1,2,-1
 242 385 l 1,3,-1
 220 513 l 1,4,-1
 137 413 l 1,5,-1
 84 466 l 1,6,-1
 184 550 l 1,7,-1
 55 571 l 1,8,-1
 76 645 l 1,9,-1
 198 599 l 1,10,-1
 153 721 l 1,11,-1
 226 741 l 1,12,-1
 248 613 l 1,13,-1
 331 714 l 1,14,-1
 384 659 l 1,15,-1
 284 577 l 1,16,-1
 413 555 l 1,17,-1
 392 481 l 1,0,-1
EndSplineSet
EndChar

StartChar: multiply
Encoding: 215 215 213
Width: 601
Flags: W
LayerCount: 2
Fore
SplineSet
379 283 m 1,0,-1
 522 61 l 1,1,-1
 383 61 l 1,2,-1
 310 202 l 1,3,-1
 300 202 l 1,4,-1
 218 61 l 1,5,-1
 79 61 l 1,6,-1
 222 283 l 1,7,-1
 78 503 l 1,8,-1
 215 503 l 1,9,-1
 290 361 l 1,10,-1
 300 361 l 1,11,-1
 386 503 l 1,12,-1
 523 503 l 1,13,-1
 379 283 l 1,0,-1
EndSplineSet
EndChar

StartChar: percent
Encoding: 37 37 216
Width: 805
Flags: W
HStem: -4 61<562.059 652.396> 228 62<562.059 652.396> 447 62<143.059 233.396> 680 61<143.059 233.396>
VStem: 60 64<529.895 659.201> 253 62<530.293 658.804> 479 64<77.6644 207.201> 672 62<78.2925 206.804>
LayerCount: 2
Fore
SplineSet
188 741 m 256,0,1
 214 741 214 741 237 730 c 128,-1,2
 260 719 260 719 277.5 699.5 c 128,-1,3
 295 680 295 680 305 653.5 c 128,-1,4
 315 627 315 627 315 595 c 256,5,6
 315 563 315 563 305 536.5 c 128,-1,7
 295 510 295 510 277.5 490 c 128,-1,8
 260 470 260 470 237 458.5 c 128,-1,9
 214 447 214 447 188 447 c 256,10,11
 162 447 162 447 139.5 458.5 c 128,-1,12
 117 470 117 470 99 490 c 128,-1,13
 81 510 81 510 70.5 536.5 c 128,-1,14
 60 563 60 563 60 595 c 256,15,16
 60 627 60 627 70.5 653.5 c 128,-1,17
 81 680 81 680 99 699.5 c 128,-1,18
 117 719 117 719 139.5 730 c 128,-1,19
 162 741 162 741 188 741 c 256,0,1
188 509 m 256,20,21
 215 509 215 509 234 531.5 c 128,-1,22
 253 554 253 554 253 595 c 0,23,24
 253 635 253 635 234 657.5 c 128,-1,25
 215 680 215 680 188 680 c 256,26,27
 161 680 161 680 142.5 657.5 c 128,-1,28
 124 635 124 635 124 595 c 0,29,30
 124 554 124 554 142.5 531.5 c 128,-1,31
 161 509 161 509 188 509 c 256,20,21
607 290 m 256,32,33
 633 290 633 290 656 278.5 c 128,-1,34
 679 267 679 267 696.5 247.5 c 128,-1,35
 714 228 714 228 724 201.5 c 128,-1,36
 734 175 734 175 734 143 c 256,37,38
 734 111 734 111 724 84.5 c 128,-1,39
 714 58 714 58 696.5 38 c 128,-1,40
 679 18 679 18 656 7 c 128,-1,41
 633 -4 633 -4 607 -4 c 256,42,43
 581 -4 581 -4 558.5 7 c 128,-1,44
 536 18 536 18 518 38 c 128,-1,45
 500 58 500 58 489.5 85 c 128,-1,46
 479 112 479 112 479 143 c 256,47,48
 479 175 479 175 489.5 201.5 c 128,-1,49
 500 228 500 228 518 247.5 c 128,-1,50
 536 267 536 267 558.5 278.5 c 128,-1,51
 581 290 581 290 607 290 c 256,32,33
607 57 m 256,52,53
 634 57 634 57 653 79.5 c 128,-1,54
 672 102 672 102 672 143 c 0,55,56
 672 183 672 183 653 205.5 c 128,-1,57
 634 228 634 228 607 228 c 256,58,59
 580 228 580 228 561.5 205.5 c 128,-1,60
 543 183 543 183 543 143 c 0,61,62
 543 102 543 102 561.5 79.5 c 128,-1,63
 580 57 580 57 607 57 c 256,52,53
159 -1 m 1,64,-1
 57 -1 l 1,65,-1
 641 737 l 1,66,-1
 742 737 l 1,67,-1
 159 -1 l 1,64,-1
EndSplineSet
EndChar
